<?xml version="1.0" standalone="no"?>
<!DOCTYPE svg PUBLIC "-//W3C//DTD SVG 1.1//EN" "http://www.w3.org/Graphics/SVG/1.1/DTD/svg11.dtd" >
<!--
2013-9-30: Created.
-->
<svg>
<metadata>
Created by iconfont
</metadata>
<defs>

<font id="ef-icon-fa" horiz-adv-x="1024" >
  <font-face
    font-family="ef-icon-fa"
    font-weight="500"
    font-stretch="normal"
    units-per-em="1024"
    ascent="896"
    descent="-128"
  />
    <missing-glyph />
    
    <glyph glyph-name="jianhao" unicode="&#59002;" d="M512.03413333 891.97226667c-280.09813333 0-508.0064-227.85706667-508.0064-507.92106667 0-280.1664 227.90826667-508.0064 508.0064-508.0064 280.1152 0 507.93813333 227.85706667 507.93813334 508.0064 0 280.064-227.82293333 507.92106667-507.93813334 507.92106667z m0-962.4064c-250.60693333 0-454.43413333 203.81013333-454.43413333 454.46826666 0 250.50453333 203.84426667 454.38293333 454.43413333 454.38293334 250.624 0 454.5024-203.91253333 454.5024-454.38293334 0-250.58986667-203.8784-454.46826667-454.5024-454.46826666z m242.19306667 491.008H269.85813333c-14.848 0-26.81173333-21.00906667-26.81173333-35.7376 0-14.71146667 11.9808-35.65226667 26.81173333-35.65226667h484.3008c14.88213333 0 26.84586667 20.9408 26.84586667 35.65226667 0.08533333 14.72853333-11.91253333 35.7376-26.7776 35.7376z"  horiz-adv-x="1024" />

    
    <glyph glyph-name="add" unicode="&#59003;" d="M510.00008279-101.95700940999996c-267.66448686 0-484.64981379 217.02905401-484.64981379 484.72806135S242.33559594 867.48300356 510.00008279 867.48300356c267.66678789 0 484.65211483-217.01294429 484.65211483-484.71195162S777.66687069-101.95700940999996 510.00008279-101.95700940999996zM510.00008279 806.8963102c-234.20901422 0-424.06772372-189.88632564-424.06772372-424.12525826S275.79106736-41.35650857999997 510.00008279-41.35650857999997s424.06772372 189.88862669 424.06772373 424.12756052S744.20909701 806.8963102 510.00008279 806.8963102zM691.74404953 352.47080153L540.29342887 352.47080153l0-151.47363594c0-16.7219825-13.5621582-30.28874399-30.29104503-30.28874399-16.72888684 0-30.28874399 13.56676149-30.288744 30.28874399l0 151.47363594-151.45522396 0c-16.72888684 0-30.29104503 13.56445923-30.29104503 30.30025041 0 16.72428354 13.56445923 30.28874399 30.29104503 30.288744l151.45522396 0 0 151.48054026c0 16.7219825 13.5621582 30.28183965 30.288744 30.28183966 16.73118788 0 30.29104503-13.55755489 30.29104503-30.28183966l0-151.48054026 151.45062187 0c16.73118788 0 30.29104503-13.56445923 30.29104504-30.288744C722.03509456 366.03526076 708.47523741 352.47080153 691.74404953 352.47080153z"  horiz-adv-x="1024" />

    
    <glyph glyph-name="backup" unicode="&#59102;" d="M205.76 858.56v-127.78666667H50.24v-821.33333333h768V37.226666669999986H973.86666667v821.33333333H205.76z m559.14666667-895.78666667h-661.33333334v714.66666667h661.33333334v-714.66666667z m155.52 127.78666667H818.13333333V730.77333333H259.09333333v74.45333334h661.33333334v-714.66666667z"  horiz-adv-x="1024" />

    
    <glyph glyph-name="anquanjiami" unicode="&#59001;" d="M939.508257 745.365138l-30.48044 0.512c-0.995817 0.015266-101.041321 1.883596-204.778863 43.754862-101.084771 40.862532-166.431706 86.681835-173.618495 91.81945L511.872 894.951339l-18.457835-13.364844c-7.246679-5.152881-73.632881-51.468917-173.769982-91.939229-103.299523-41.706862-203.254606-43.756037-204.326752-43.770128l-31.053504-0.497909v-429.021945c0-215.446312 278.080587-443.30745 427.637431-443.307449 149.602642 0 427.803009 227.844697 427.832367 443.291009l-0.225468 429.024294zM498.396771 595.083743v-199.204404H300.905688v-27.046752l197.491083-0.001174v-196.497615l27.09255-0.001174V368.832587H723.657982v27.047927l-198.168661-0.001175V595.084917z"  horiz-adv-x="1024" />

    
    <glyph glyph-name="baobiao1" unicode="&#58999;" d="M603.30325333 892.85973333l-455.12931555-1.024c-30.99306667 0-56.1152-25.12213333-56.1152-56.1152v-897.85457778c0-30.99306667 25.12213333-56.1152 56.1152-56.1152l729.50670222-7.0144c30.99306667 0 56.1152 25.12213333 56.1152 56.1152V555.14112L603.30325333 892.85973333z m56.92757334-143.51587555l69.04490666-69.04035556 69.04149334-69.04604444H660.23082667V749.34385778z m217.44867555-818.49230223l-729.50670222 7.01553778V835.72053333l437.66556445 1.25383112 18.27612444-31.51075556v-194.20728889c0-30.99306667 25.12213333-56.1152 56.1152-56.1152h194.20387556l23.24593777-23.24707555v-601.0424889zM260.40547555 660.35825778h168.34787556v-56.1152H260.40547555v56.1152zM260.40547555 492.01038222h448.92615112v-56.1152H260.40547555v56.1152zM260.40547555 323.66364445h448.92615112v-56.1152H260.40547555v56.1152zM260.40547555 155.31576888999996h448.92615112v-56.1152H260.40547555v56.1152z"  horiz-adv-x="1024" />

    
    <glyph glyph-name="baobiao" unicode="&#58996;" d="M977.984 40 108.032 40c-17.152 0-31.04 12.8-31.04 28.672L76.992 756.672c0 15.872-13.888 28.672-31.04 28.672-17.152 0-31.04-12.8-31.04-28.672l0-716.672c0-31.616 27.84-57.344 62.08-57.344l900.992 0c17.152 0 31.04 12.8 31.04 28.672S995.2 40 977.984 40L977.984 40zM977.984 40M170.112 269.312l61.632 0c10.688-0.32 21.312 4.48 27.392 13.44l66.048 97.664 94.208-195.392c4.032-8.32 11.84-14.016 20.736-16.128 16.128-4.096 33.024 4.352 37.952 19.264l127.36 384.832 92.864-280.64c2.88-13.12 15.36-22.976 30.4-22.976l155.2 0c2.688 0 5.248 0.32 7.744 0.896 10.56-17.664 30.912-29.568 54.336-29.568 34.304 0 62.08 25.664 62.08 57.344 0 31.68-27.776 57.344-62.08 57.344-23.36 0-43.712-11.968-54.336-29.568-2.496 0.576-5.056 0.896-7.744 0.896l-132.032 0L635.2 679.104C630.208 694.208 612.864 702.784 596.48 698.112 590.784 696.512 585.92 693.504 582.272 689.664c-3.008-3.008-5.312-6.72-6.72-10.88l-132.8-401.28L358.848 451.648C357.376 455.232 355.136 458.56 352.128 461.376 352 461.504 351.808 461.632 351.68 461.76 351.488 461.952 351.36 462.08 351.168 462.272 342.336 470.016 328.96 472.576 317.12 467.648 310.4 464.896 305.216 460.16 302.144 454.528L215.616 326.656 170.112 326.656c-17.152 0-31.04-12.864-31.04-28.672C139.072 282.176 153.024 269.312 170.112 269.312L170.112 269.312zM170.112 269.312"  horiz-adv-x="1024" />

    
    <glyph glyph-name="icon-test1" unicode="&#58992;" d="M512 896C229.222205 896 0 666.777795 0 384s229.222205-512 512-512 512 229.222205 512 512S794.777795 896 512 896z m2.982449-819.07346L248.292745 376.9527h135.29454V679.396745h268.233491V376.9527h134.151787L519.282859 76.92654h-4.30041zM512 896C229.222205 896 0 666.777795 0 384s229.222205-512 512-512 512 229.222205 512 512S794.777795 896 512 896z m2.982449-819.07346L248.292745 376.9527h135.29454V679.396745h268.233491V376.9527h134.151787L519.282859 76.92654h-4.30041zM653.140684 377.186312V679.396745H383.587285V377.186312h-134.062236l266.689704-300.259772 270.990114 300.259772z"  horiz-adv-x="1024" />

    
    <glyph glyph-name="icon-test" unicode="&#58991;" d="M512 896C229.222205 896 0 666.777795 0 384s229.222205-512 512-512 512 229.222205 512 512S794.777795 896 512 896z m2.982449-819.07346L248.292745 376.9527h135.29454V679.396745h268.233491V376.9527h134.151787L519.282859 76.92654h-4.30041zM512 896C229.222205 896 0 666.777795 0 384s229.222205-512 512-512 512 229.222205 512 512S794.777795 896 512 896z m7.282859-819.07346h-4.30041L248.292745 376.9527h135.29454V679.396745h268.233491V376.9527h134.151787L519.282859 76.92654z"  horiz-adv-x="1024" />

    
    <glyph glyph-name="fenxicopy" unicode="&#58990;" d="M0 896m31.873914 0l0 0q31.873914 0 31.873914-31.873914l0-907.694911q0-31.873914-31.873914-31.873914l0 0q-31.873914 0-31.873914 31.873914l0 907.694911q0 31.873914 31.873914 31.873914ZM1118.839426-12.081301m0-31.873914l0 0q0-31.873914-31.873914-31.873914l-1040.780861 0q-31.873914 0-31.873914 31.873914l0 0q0 31.873914 31.873914 31.873914l1040.780861 0q31.873914 0 31.873914-31.873914ZM216.996305 114.793789c5.547362 0 11.094724 2.09197 15.363226 6.316238l289.376109 285.663123 109.37566-109.37566c8.193547-8.193547 22.702033-8.193547 30.896881 0l191.572631 191.867951 10.146312-10.104681 58.360486-58.052154L964.045389 626.697952l-209.928101-38.339765 59.997113-59.787656 8.509685-8.474559-176.063695-176.355113-109.289796 109.291098c-8.492772 8.44984-22.233681 8.534403-30.812317 0.084563L201.633078 152.177336c-8.577335-8.44984-8.6632-22.276613-0.169127-30.896881a21.817369 21.817369 0 0 1 15.532354-6.486666z"  horiz-adv-x="1178" />

    
    <glyph glyph-name="jiaose" unicode="&#58987;" d="M642.41664 307.712c-154.92096 0-280.832 125.7984-280.832 280.576 0 154.78784 125.91104 280.59648 280.832 280.59648 154.9312 0 280.84224-125.80864 280.84224-280.58624 0-154.78784-125.91104-280.58624-280.84224-280.58624z m0 495.3088c-118.66112 0-214.90688-96.16384-214.90688-214.7328 0-118.54848 96.256-214.71232 214.90688-214.71232 118.67136 0 214.91712 96.1536 214.91712 214.72256 0 118.55872-96.256 214.72256-214.91712 214.72256zM1083.46368-127.66208a32.62464 32.62464 0 0 0-32.9728 32.93184c0 216.04352-176.01536 391.90528-392.2432 391.90528-216.23808 0-392.26368-175.86176-392.26368-391.90528a32.62464 32.62464 0 0 0-32.96256-32.93184 32.62464 32.62464 0 0 0-32.96256 32.93184c0 252.2624 205.69088 457.76896 458.1888 457.76896 252.48768 0 458.17856-205.50656 458.17856-457.76896a32.62464 32.62464 0 0 0-32.9728-32.93184z m-717.9264 557.8752c-128.55296 0-233.3696 104.06912-233.3696 232.50944S236.30848 895.232 364.86144 895.232c54.72256 0 107.45856-19.10784 148.33664-53.3504l-42.1888-50.06336c-28.35456 23.71584-67.24608 37.53984-106.14784 37.53984-92.29312 0-166.78912-74.42432-166.78912-166.63552 0-92.2112 75.1616-166.63552 167.45472-166.63552v-65.86368zM33.28 76.52352a32.62464 32.62464 0 0 0-32.9728 32.93184c0 208.13824 169.43104 377.40544 377.7536 377.40544a32.62464 32.62464 0 0 0 32.96256-32.93184 32.62464 32.62464 0 0 0-32.96256-32.93184c-172.06272 0-311.82848-139.63264-311.82848-311.54176a32.62464 32.62464 0 0 0-32.96256-32.93184zM935.79264 420.99712v65.86368c92.29312 0 166.78912 74.43456 166.78912 166.64576S1028.08576 820.14208 935.79264 820.14208c-39.55712 0-76.47232-13.16864-106.14784-37.53984L787.456 833.31072c41.53344 34.9184 92.95872 53.3504 148.33664 53.3504 128.55296 0 232.71424-104.05888 232.71424-232.4992 0-129.09568-104.16128-233.1648-232.71424-233.1648zM1267.39456 76.52352a32.62464 32.62464 0 0 0-32.9728 32.93184c0 171.90912-139.75552 311.54176-311.808 311.54176a32.62464 32.62464 0 0 0-32.9728 32.93184 32.62464 32.62464 0 0 0 32.9728 32.93184c208.31232 0 377.74336-169.2672 377.74336-377.40544a32.62464 32.62464 0 0 0-32.9728-32.93184zM832.39936 132.8128L642.53952-56.87296a33.49504 33.49504 0 0 0-47.11424 0l-94.22848 94.208c-12.9024 13.29152-12.9024 34.2528 0 47.16544a33.61792 33.61792 0 0 0 47.49312 0.37888l70.8608-70.94272 165.7344 165.91872c12.76928 12.77952 34.21184 12.77952 47.104 0 12.77952-12.77952 12.77952-34.12992 0-47.04256z"  horiz-adv-x="1300" />

    
    <glyph glyph-name="jiaose1" unicode="&#58988;" d="M350.21817 485.334917C154.357729 470.68148 0 307.11799299999996 0 107.51995299999999c0-10.024958 0.38912-19.957756 1.15712-29.798394h199.93596c47.022071 118.343656 135.311333 214.333397 246.159311 268.441546a312.033218 312.033218 0 0 0-97.034221 139.171812zM939.540292 485.980037C1140.459292 476.620679 1300.47974 310.76343199999997 1300.47974 107.51995299999999c0-10.024958-0.38912-19.957756-1.15712-29.798394h-189.685722c-48.92671 123.156455-142.571491 222.105556-259.809228 274.841545a311.930818 311.930818 0 0 1 89.712622 133.416933zM492.216222 858.756923A231.495634 231.495634 0 0 1 365.977527 895.999795C237.526992 895.999795 133.119973 791.592776 133.119973 663.142242c0-128.450534 104.407019-232.857553 232.857554-232.857554 3.184639 0 6.348799 0.06144 9.502718 0.19456a309.770178 309.770178 0 0 0-42.280952 156.651489c0 116.479977 64.163827 218.183636 159.016929 271.626186zM642.416512 307.22039299999994c-154.920929 0-280.842184 125.911015-280.842184 280.831944S487.495583 868.884281 642.416512 868.884281c154.920929 0 280.842184-125.911015 280.842183-280.831944S797.337441 307.22039299999994 642.416512 307.22039299999994zM832.399194 132.822988L642.539391-56.88321399999995a33.484793 33.484793 0 0 0-47.11423 0l-94.228461 94.207981c-12.892157 13.291517-12.892157 34.252793 0 47.165431a33.617913 33.617913 0 0 0 47.50335 0.378879l70.860786-70.942705 165.724127 165.918686c12.769277 12.779517 34.222073 12.779517 47.124471 0 12.748797-12.779517 12.748797-34.129913-0.01024-47.02207zM810.843998 850.759484A231.751634 231.751634 0 0 0 935.321413 886.783797c128.604134 0 232.857553-104.253419 232.857553-232.857553s-104.263659-232.857553-232.857553-232.857554c-8.775678 0-17.459197 0.48128-25.989115 1.4336a310.097858 310.097858 0 0 1 46.991351 164.607967c0 111.011818-58.060788 208.465878-145.479651 263.649227zM1114.756897-128c0.9216 11.816958 1.40288 23.777275 1.40288 35.839993C1116.159777 159.49818300000004 909.864778 363.519902 655.359869 363.519902c-254.494669 0-460.799908-204.021719-460.799908-455.679909 0-12.062718 0.47104-24.023035 1.40288-35.839993h918.794056zM1114.756897-128c0.9216 11.816958 1.40288 23.777275 1.40288 35.839993C1116.159777 159.49818300000004 909.864778 363.519902 655.359869 363.519902c-254.494669 0-460.799908-204.021719-460.799908-455.679909 0-12.062718 0.47104-24.023035 1.40288-35.839993h918.794056zM832.399194 132.822988L642.539391-56.88321399999995a33.484793 33.484793 0 0 0-47.11423 0l-94.228461 94.207981c-12.892157 13.291517-12.892157 34.252793 0 47.165431a33.617913 33.617913 0 0 0 47.50335 0.378879l70.860786-70.942705 165.724127 165.918686c12.769277 12.779517 34.222073 12.779517 47.124471 0 12.748797-12.779517 12.748797-34.129913-0.01024-47.02207z"  horiz-adv-x="1300" />

    
    <glyph glyph-name="disk-cloud" unicode="&#58984;" d="M764.30336 451.17696a208.15104 208.15104 0 0 1 36.41856 4.36992l39.50592-379.16928V-96H55.50848v172.3776l68.22912 655.09632H562.2272a208.46592 208.46592 0 0 1-9.3696-34.4832H157.84448l-66.7392-620.61312h713.51808l-40.32 374.79936z m41.80224-409.25952H89.61536v-103.43424h716.48256v103.43424z m-204.71808-68.9664h-34.10688v34.4832h34.10688v-34.4832z m68.24448 0h-34.11456v34.4832h34.11456v-34.4832z m68.22144 0h-34.10688v34.4832h34.10688v-34.4832zM294.94016 445.85472c22.05696 65.84832 83.712 113.2416 156.31872 113.2416 89.41824 0 162.2016-71.86176 164.93568-161.54112A103.04256 103.04256 0 0 0 694.8224 297.0624c0-56.99328-58.78272-71.7696-78.84288-71.7696v0.31488h-376.8576c-11.11296 0-47.14752 25.1136-47.14752 95.27808 0.00768 62.30784 44.39808 114.14784 102.96576 124.96896zM254.7968 257.3568h361.18272v0.10752c3.88608-0.09216 6.73536-0.10752 8.14848-0.10752 10.4832 0 39.26784 9.6 39.26784 39.69792 0 30.12096-31.65696 71.47008-70.70976 71.47008-2.31936 0-4.63872-0.12288-6.9504-0.3456v0.576c0 3.9552 0 51.6096-6.42816 62.12352-16.41216 55.77216-67.52256 96.44544-128.04864 96.44544a132.68736 132.68736 0 0 1-102.8352-48.8448c-5.16096-5.93664-24.0768-29.52192-29.40672-62.33088l-1.32096 0.01536c-52.07808 0-94.28736-42.6624-94.28736-95.28576 0-52.50048 24.86016-63.45984 31.38816-63.52128z m193.05216 249.72288v-17.27232c-44.29824-3.40992-81.31584-33.11616-95.80032-73.70496h-17.98656c15.26784 50.21184 59.99616 87.40608 113.78688 90.97728zM773.10464 472.32c-108.16512 0-195.84 87.68256-195.84 195.84S664.93952 864 773.10464 864c108.15744 0 195.84-87.68256 195.84-195.84S881.26208 472.32 773.10464 472.32z m0 360.96c-93.312 0-168.96-73.92768-168.96-165.12s75.648-165.12 168.96-165.12 168.96 73.92768 168.96 165.12-75.648 165.12-168.96 165.12z m73.29792-177.96864h-61.16352v-61.2864c0-6.76608-5.48352-12.25728-12.24192-12.25728a12.2496 12.2496 0 0 0-12.23424 12.25728v61.2864h-61.16352a12.24192 12.24192 0 0 0-12.24192 12.25728c0 6.76608 5.47584 12.25728 12.24192 12.25728h61.16352v61.2864c0 6.76608 5.48352 12.25728 12.23424 12.25728 6.7584 0 12.24192-5.48352 12.24192-12.25728v-61.2864h61.16352c6.7584 0 12.23424-5.4912 12.23424-12.25728 0-6.76608-5.47584-12.25728-12.23424-12.25728z"  horiz-adv-x="1024" />

    
    <glyph glyph-name="image-cloud" unicode="&#58985;" d="M313.71408687 30.310956560000022h36.93913032v-36.91408687h-36.93913031zM628.23513031-6.177390940000009h78.31095657c5.39269594 0 9.81704344 4.14052219 9.81704343 9.2243475v18.45704344c0 5.08382625-4.38260906 9.2243475-9.81704343 9.2243475h-78.31095657c-5.39269594 0-9.76695656-4.09043438-9.76695656-9.2243475v-18.45704344c0-5.08382625 4.36591312-9.2243475 9.76695656-9.2243475zM237.08939094 586.70191313h36.93913125v-36.91408688h-36.93913125zM724.7443475 454.95652219a218.84660906 218.84660906 0 0 0-85.49008688 37.56521719H90.43478281v150.26086968h459.83165157a219.53113031 219.53113031 0 0 0-1.50260813 37.56521719H52.86956563v-225.39130406h671.87478187zM313.71408687 585.84208688h36.93913032v-36.91408688h-36.93913031zM237.08939094 31.154086880000023h36.93913125v-36.91408688h-36.93913125zM162.33460906 585.84208688h36.93913031v-36.91408688h-36.93913031zM52.86956563 129.39130406000004v-225.39130406H820.86956563V129.39130406000004H52.86956563z m730.43478187-187.82608687h-692.86956469v150.26086969h692.86956469v-150.26086969zM153.98678281 308.06817375h36.93913031v-36.91408687h-36.93913031zM162.33460906 30.310956560000022h36.93913031v-36.91408687h-36.93913031zM52.86956563 404.31026062v-225.39130406h768v225.39130407H52.86956563z m730.43478187-187.82608687h-692.86956469v150.26086969h692.86956469v-150.26086969zM630.28869594 273.15756562h78.31095656c5.39269594 0 9.81704344 4.14052219 9.81704344 9.2243475v18.45704344c0 5.07547781-4.37426062 9.2243475-9.81704344 9.2243475H630.28869594c-5.39269594 0-9.76695656-4.09878281-9.76695656-9.2243475v-18.45704344c0-5.08382625 4.37426062-9.2243475 9.76695656-9.2243475zM305.36626062 308.06817375h36.93913032v-36.91408687h-36.93913031zM228.74156562 308.9363475h36.93913032v-36.91408687h-36.93913032zM771.50886969 479.19860906c-106.25947781 0-192.40069594 86.14956563-192.40069594 192.400695C579.10817375 777.85878281 665.24104344 864 771.50886969 864s192.40069594-86.14121719 192.40069594-192.40069594c0-106.25113031-86.14121719-192.40069594-192.40069594-192.400695z m0 354.624c-91.66747781 0-165.99652219-72.62608687-165.99652219-162.223305s74.32069594-162.22330406 165.99652219-162.22330406 165.99652219 72.63443437 165.99652125 162.22330406S863.1763475 833.82260906 771.50886969 833.82260906z m72.0083475-174.84521812h-60.08765156v-60.21286875a12.02086969 12.02086969 0 0 0-24.03339188 0V658.97739094h-60.08765156c-6.64486969 0-12.02086969 5.39269594-12.02086969 12.04591312 0 6.64486969 5.3843475 12.03756563 12.02086969 12.03756563h60.08765156v60.21286968c0 6.64486969 5.3843475 12.03756563 12.01252219 12.03756469 6.64486969 0 12.02086969-5.39269594 12.02086969-12.03756469v-60.21286968h60.08765156a12.02086969 12.02086969 0 0 0 12.01252219-12.03756563 12.02086969 12.02086969 0 0 0-12.01252219-12.04591312z"  horiz-adv-x="1024" />

    
    <glyph glyph-name="set-up" unicode="&#58978;" d="M906.57884469 404.92633364c0 13.49299969-0.72499969 27.10900031-2.049 40.482l61.206 35.30299969c23.25400031 13.374 31.20499969 43.134 17.832 66.267L870.43384531 742.28333302c-13.37500031 23.133-43.134 31.08499969-66.38800031 17.712l-61.20499969-35.30299969c-22.04899969 15.90400031-45.543 29.51899969-70.24300031 40.60300031V835.77833302C672.597845 862.52633302 650.78984469 884.33333302 624.042845 884.33333302H397.893845c-26.74699969 0-48.555-21.807-48.555-48.555v-70.48299938c-24.699-11.085-48.31399969-24.699-70.242-40.60300031l-61.206 35.30299969c-23.25400031 13.374-53.013 5.421-66.387-17.712L38.48984469 546.8573330199999c-13.374-23.133-5.42200031-52.893 17.83100062-66.267l61.20699938-35.30199938c-1.32499969-13.374-2.04799969-26.98900031-2.04799969-40.482 0-13.494 0.72400031-27.10900031 2.04799969-40.482l-61.20699938-35.30200031C33.06784531 315.64633363999997 25.11484531 285.88833333 38.48984469 262.75433302l112.89500062-195.18499969c13.374-23.13199969 43.13299969-31.08499969 66.387-17.71099969l61.206 35.30299969c22.04800031-15.90499969 45.543-29.51899969 70.24099969-40.60300031v-70.48299938c0-26.748 21.80800031-48.55600031 48.555-48.55600031h226.15000031c26.74699969 0 48.555 21.80800031 48.555 48.55600031v70.48299938c24.70000031 11.08399969 48.31399969 24.69799969 70.24299938 40.60300031l61.20500062-35.30299969c23.25400031-13.374 53.013-5.421 66.38799938 17.71099969l113.01400031 195.42799969c13.614 23.133 5.54200031 52.77100031-17.59099969 66.14600062l-61.206 35.30199938c1.32400031 13.37200031 2.04700031 26.98699969 2.04699938 40.48100062zM510.999845 212.33333302000005c104.38099969 0 189 84.618 189 189s-84.61900031 189-189 189c-104.382 0-189-84.618-189-189s84.618-189 189-189z m0 66c67.93099969 0 123 55.06900031 123 123s-55.06900031 123-123 123c-67.932 0-123-55.06900031-123-123s55.06900031-123 123-123z"  horiz-adv-x="1024" />

    
    <glyph glyph-name="setup" unicode="&#58977;" d="M905.80053781 364.55765583000004c1.32533625 13.37348531 2.04806625 26.98821094 2.04806625 40.48182s-0.72372281 27.1093275-2.04806625 40.48281281l61.20570844 35.30258532c23.25344344 13.37348531 31.20546 43.13348531 17.83197469 66.266805l-113.13505688 195.30490124c-13.37447812 23.13331969-43.13348531 31.08533625-66.38692875 17.71185094l-61.2057075-35.30258531c-22.04823187 15.90403312-45.54291656 29.51875875-70.24281281 40.6029375V835.89184458c0 26.7479625-21.80798344 48.55495312-48.55495406 48.55495312H399.16376469c-26.74696969 0-48.55495312-21.80699063-48.55495406-48.55495312v-70.48306125c-24.69989625-11.08517062-48.31470563-24.69890344-70.24281282-40.6029375l-61.20570843 35.30258531c-23.25344344 13.37348531-53.01245062 5.42146875-66.38692875-17.71185093L39.75942125 546.97056146c-13.37447812-23.13331969-5.42246156-52.89232687 17.83098187-66.26680407l61.20670125-35.3015925c-1.32533625-13.37447812-2.04806625-26.98920375-2.04806625-40.48281281s0.72372281-27.1093275 2.04806625-40.48281281l-61.20670125-35.3015925c-23.25344344-13.37447812-31.20546-43.13348531-17.83098187-66.266805l112.89381563-195.1847775c13.37447812-23.13232688 43.13348531-31.08533625 66.38692875-17.71085813l61.20570843 35.30258532c22.04823187-15.90502594 45.54291656-29.51875875 70.24182-40.60293657v-70.48306125c0-26.7479625 21.80798344-48.55594594 48.55495313-48.55594687h226.14999c26.74696969 0 48.55495312 21.80798344 48.55495312 48.55594687v70.48306125c24.69989625 11.08417781 48.31470563 24.69890344 70.24281282 40.60293657l61.20570843-35.30258532c23.25344344-13.37447812 53.01245062-5.42146875 66.38692875 17.71085813L984.59698063 263.11037582999995c13.61472562 23.13331969 5.54258531 52.77121031-17.59073438 66.1456875l-61.20570844 35.3015925zM512.17770406 593.59856583c-104.21906906 0-189.03958594-84.58026844-189.03958593-188.55909S407.958635 216.48137864 512.17770406 216.48137864c104.21906906 0 189.04057875 84.57927656 189.04057969 188.55809719s-84.82150969 188.55909-189.04057969 188.55909zM389.16368187 405.03947583c0 67.59214031 55.18163438 122.65365 123.01402219 122.65365094 67.83338156 0 123.01501594-55.06150969 123.01501594-122.65365094 0-67.5911475-55.18163438-122.65265812-123.01501594-122.65265719-67.83238875 0-123.01402312 55.06150969-123.01402219 122.65265719z"  horiz-adv-x="1024" />

    
    <glyph glyph-name="redhat1" unicode="&#58969;" d="M546.747733 861.4912C264.4992 861.4912 35.498667 636.996267 35.498667 360.209067c0-56.0128 9.454933-110.011733 26.624-160.221867h35.566933c31.4368 0 60.8256 7.441067 85.367467 19.968 6.178133 3.208533 13.243733 5.051733 20.7872 5.051733 15.633067 0 29.218133-5.9392 37.649066-19.797333 7.3728-12.526933 14.2336-19.797333 22.664534-25.019733 7.202133-4.573867 17.169067-8.430933 31.4368-7.7824 6.690133 0.341333 16.827733 1.877333 19.387733 8.8064 2.935467 7.918933-0.682667 13.858133-10.478933 17.749333-13.755733 5.768533-17.544533 13.858133-24.917334 26.7264s-23.176533 19.626667-25.770666 43.656533c-2.389333 23.6544 16.4864 53.4528 53.9648 43.997867 26.965333-6.792533 44.475733-39.594667 51.029333-50.756267 3.447467-5.905067 15.4624-12.868267 25.258667-3.8912 9.796267 8.8064 18.7392 8.8064 26.112-2.3552 6.3488-9.6256 52.224-69.700267 102.024533-71.236266 50.688-1.672533 77.653333 11.1616 99.6352 10.513066 15.4624-0.512 23.005867-8.2944 31.812267-9.6256 15.598933-2.389333 26.589867 11.332267 43.793066 10.6496 13.892267-0.7168 29.013333-9.8304 44.475734-9.8304s48.264533 18.261333 47.752533 10.820267c-0.7168-13.380267-11.332267-37.0688-13.892267-48.059733-1.911467-7.611733-0.2048-26.043733-4.983466-40.584534-4.130133-15.0528-18.397867-33.9968-22.016-39.389866-12.526933-18.466133-21.640533-23.8592-31.778134-43.144534-11.332267-21.674667-30.242133-41.6768-35.0208-48.059733-6.212267-8.2944 35.396267 0.170667 50.141867 14.0288 12.561067 11.707733 34.542933 46.865067 69.393067 54.510933 23.552 5.051733 28.194133 13.858133 25.463466 22.016a7.816533 7.816533 0 0 0 3.754667 10.308267c24.234667 9.8304 57.207467 16.0768 93.2864 16.0768 21.0944 0 42.052267-2.8672 61.815467-7.2704a492.100267 492.100267 0 0 1 82.1248 272.349867c0.238933 276.5824-228.7616 501.077333-511.214934 501.077333zM962.6624 370.17600000000004c-24.405333-131.959467-244.6336-176.298667-458.8544-112.8448-204.0832 60.5184-383.2832 181.179733-362.461867 251.904 12.014933 41.130667 78.677333 58.709333 167.3216 49.425067-13.4144-26.897067-12.526933-58.538667 46.216534-93.730134 71.816533-39.936 193.058133-74.103467 225.8944-70.724266 12.1856 1.194667 23.210667 7.099733 12.1856 14.370133-10.990933 7.2704-20.753067 21.674667-26.965334 46.865067-3.447467 14.062933-7.406933 33.4848-84.343466 47.889066-165.444267 30.958933-159.095467 76.8-154.282667 103.2192 0 0 14.779733 64.785067 20.7872 87.620267 6.178133 22.8352 21.8112 75.127467 128.512 51.6096 61.508267-13.5168 94.788267 3.3792 111.8208 7.611733 46.045867 11.6736 97.0752 3.549867 125.2352-24.712533 29.184-29.457067 69.2224-120.149333 88.4736-187.972267 9.796267-34.5088 7.202133-50.926933 2.218667-62.600533-3.584-7.953067-5.666133-13.038933-17.7152-33.1776-2.082133-3.549867-0.341333-7.441067 4.3008-5.085867 31.982933 16.0768 39.150933 37.410133 44.168533 53.998934 87.108267-19.456 138.6496-63.761067 127.488-123.665067zM658.397867 134.144a1.570133 1.570133 0 0 1-1.194667-0.477867 88.2688 88.2688 0 0 0-14.267733-13.7216c-11.4688-9.147733-24.746667 1.194667-33.143467 6.109867-18.7392 10.820267-33.860267 3.8912-37.614933-4.4032-3.618133-8.465067 0.341333-18.432 10.6496-17.271467 14.2336 1.877333 14.9504-0.341333 25.224533-6.7584 19.2512-12.014933 33.348267-5.393067 40.5504 0.170667 6.007467 4.778667 9.4208 8.8064 12.526933 14.370133 5.495467 10.8544 1.024 19.1488-1.706666 21.674667a2.116267 2.116267 0 0 1-1.024 0.3072zM494.011733 655.086933c-24.917333 0-42.769067-3.208533-58.402133-3.549866-15.4624-0.341333-27.477333 10.820267-32.9728 17.6128-4.642133 5.563733-19.217067 10.990933-27.306667-7.099734-8.055467-18.261333 6.894933-37.717333 19.2512-40.277333 0 0 20.445867-37.376 36.078934-21.162667 10.990933 11.502933 17.169067 17.783467 76.288 22.016 28.16 2.048 31.095467 8.465067 30.242133 15.223467-0.9216 8.0896-17.92 17.237333-43.178667 17.237333z m142.267734 79.6672h-2.935467c-5.495467 0-11.332267-0.341333-17.2032-1.024-19.5584-2.013867-36.5568-6.7584-48.059733-12.6976-0.546133-0.170667-0.853333-0.682667-0.853334-1.365333 0-0.853333 0.682667-1.536 1.7408-1.536h0.136534c3.2768 0.512 6.724267 1.024 10.1376 1.365333 31.812267 3.037867 58.436267-2.013867 59.8016-11.502933 1.024-7.2704-12.868267-14.711467-33.348267-19.456-0.989867-0.170667-1.706667-1.194667-1.706667-2.184533s0.7168-1.877333 1.706667-2.048c8.6016-2.3552 18.568533-3.8912 29.0816-4.232534 32.802133-0.682667 59.5968 10.820267 60.1088 25.873067 0.3072 15.4624-25.8048 28.16-58.606933 28.808533z"  horiz-adv-x="1058" />

    
    <glyph glyph-name="window" unicode="&#58968;" d="M68.266667 411.136V693.9648l328.260266 71.133867v-349.115734L68.266667 411.136zM998.331733 896v-471.381333l-547.089066-8.0896V776.942933L998.331733 896zM68.266667 357.2736l328.260266-4.846933v-366.865067L68.266667 47.5136v309.76z m930.065066-13.482667v-471.381333L451.242667-24.67840000000001V351.880533l547.089066-8.0896z"  horiz-adv-x="1058" />

    
    <glyph glyph-name="ubuntu1" unicode="&#58971;" d="M110.626133 493.431467c60.450133 0 109.704533-47.9232 109.704534-106.7008 0-58.811733-49.288533-106.7008-109.704534-106.7008C50.176 280.20053299999995 0.887467 328.0896 0.887467 386.901333c0 58.606933 49.288533 106.530133 109.738666 106.530134z m488.448 315.972266c27.136 0 53.589333-2.525867 79.189334-7.202133a115.5072 115.5072 0 0 1-0.7168-13.7216c0-81.92 68.7104-148.7872 152.849066-148.7872 33.1776 0 63.6928 10.24 88.7808 27.818667 58.197333-64.8192 95.982933-147.421867 103.5264-238.08l-173.056-5.188267c-14.404267 121.9584-121.412267 217.122133-250.504533 217.122133a254.8736 254.8736 0 0 1-102.5024-21.265066l-86.528 145.92a429.3632 429.3632 0 0 0 188.962133 43.383466zM836.1984 86.15253299999995c60.450133 0 109.533867-47.889067 109.533867-106.734933 0-58.811733-49.2544-106.7008-109.533867-106.7008-60.450133 0-109.704533 47.889067-109.704533 106.7008 0.170667 58.845867 49.425067 106.734933 109.704533 106.734933z m-479.5392-29.320533c-73.8304 50.2784-130.833067 122.641067-160.187733 207.0528 40.3456 26.8288 66.935467 71.8848 66.935466 122.9824 0 52.9408-28.842667 99.669333-71.918933 125.986133 27.101867 89.463467 84.821333 166.536533 161.041067 219.648L443.733333 589.1071999999999c-58.914133-44.919467-96.836267-114.926933-96.836266-193.160533 0-77.550933 37.2736-146.944 95.300266-191.829334l-85.538133-147.285333zM1023.010133 366.76266699999996c-6.997333-98.679467-49.937067-187.8016-116.0192-255.488a155.306667 155.306667 0 0 1-70.5536 16.930133c-80.349867 0-146.466133-60.791467-152.4736-137.352533-27.511467-5.358933-55.808-8.362667-84.821333-8.362667a431.889067 431.889067 0 0 0-185.787733 41.710933l86.186666 146.261334a255.3856 255.3856 0 0 1 99.566934-19.933867c129.6384 0 237.124267 96.1536 250.709333 218.794667l173.192533-2.56zM830.3616 895.010133c60.450133 0 109.704533-47.889067 109.704533-106.7008 0-58.811733-49.2544-106.7008-109.704533-106.7008s-109.704533 47.9232-109.704533 106.7008c0.136533 58.7776 49.4592 106.7008 109.704533 106.7008z"  horiz-adv-x="1058" />

    
    <glyph glyph-name="debain" unicode="&#58973;" d="M865.080497 462.828306c0-25.223693-8.533049-42.050865-17.066097-63.11043l-17.066098-8.430652c-12.765441-25.223693 0-12.628912-8.533049-33.654345-17.066098-16.827172-55.362421-50.515649-68.127863-54.679777-8.533049 0 4.232392 8.430652 8.533049 12.628912-25.530882-16.861305-21.29849-25.257825-59.594813-37.886737v4.164128c-93.761141-46.249125-225.818606 42.084997-225.818606 164.073464 0-8.430652-4.232392-4.19826-4.232392-8.430652-4.232392 63.11043 29.831539 121.988467 85.228092 147.246291 55.362421 29.490217 119.257891 21.059565 161.889004-16.827172-21.332622 29.456085-63.929602 58.843905-115.059632 54.679777-51.130029 0-97.959401-33.654345-115.025499-67.308689-25.565014-16.861305-29.865671-63.11043-42.631112-71.541082-17.066098-109.359555 29.831539-155.642812 102.225926-214.554982 12.765441-8.430652 4.232392-8.430652 4.232392-16.861305a188.614513 188.614513 0 0 0-63.89547 50.51565c8.533049-12.628912 21.29849-29.490217 34.063931-37.886737-21.29849 8.39652-55.362421 54.679777-63.89547 58.843905 38.364588-71.541082 161.854872-121.988467 225.784474-96.764774-29.865671 0-68.161995 0-102.225926 12.628912-12.765441 8.39652-34.063931 21.025432-29.831539 25.18956 85.19396-33.620213 178.852705-25.18956 251.315356 33.654345 21.29849 16.861305 38.364588 37.886737 46.829372 42.084997-8.533049-12.628912 0-8.430652-4.232392-16.861304 17.066098 29.490217-8.533049 12.628912 21.29849 54.679777l8.533049-12.59478c-4.232392 25.223693 29.865671 54.679777 29.865671 96.764774 8.533049 12.628912 8.533049-12.628912 0-42.084997 12.765441 29.490217 4.232392 37.886737 4.232392 63.144562 4.232392-8.464785 8.533049-16.895437 8.533049-25.257825-4.232392 21.059565 12.765441 42.084997 17.066098 58.878038-4.232392 0-12.765441-12.628912-12.765441 21.059564 0 16.827172 4.232392 8.39652 4.232392 12.594781-4.232392 0-12.765441 12.628912-17.066098 37.886737 4.232392 4.19826 8.533049-12.628912 12.765442-12.628913-4.232392 16.895437-8.533049 33.688477-8.533049 46.283258-12.765441 29.456085-4.232392-4.164128-17.066098 12.628912-17.066098 46.249125 12.765441 12.59478 12.765441 33.620213 21.29849-33.620213 34.063931-84.135862 42.59698-105.195427-4.232392 25.257825-12.765441 50.515649-21.29849 75.773474 8.533049-4.19826-12.765441 50.481517 8.533049 16.827172-21.29849 79.90347-93.761141 151.444552-157.588347 185.098897 12.765441-12.628912 21.29849-21.025432 21.29849-25.223692-34.063931 21.025432-25.530882 21.025432-29.831539 29.456084-25.530882 12.628912-29.831539 0-46.829372 0C677.524083 870.708043 669.059298 870.708043 622.195793 883.336955v-8.39652c-34.098063 12.628912-38.39872-4.19826-72.462651 0-4.232392 0 12.765441 4.164128 21.29849 8.430653-29.831539-4.19826-29.831539 4.164128-59.594813 0L536.967701 895.965868c-25.530882 0-63.89547-16.861305-51.130029-4.19826-42.59698-16.827172-119.292024-46.249125-157.588347-84.135862v8.430652c-21.29849-21.059565-85.228092-67.30869-89.426352-96.764775h-4.266525c-17.066098-16.861305-21.29849-37.886737-29.831539-54.679777-12.765441-21.059565-21.29849-8.430652-17.066098-12.628912C162.127929 601.4732839999999 149.294224 559.422419 136.528782 521.6039470000001c8.533049-12.628912 0-71.575214 4.232393-117.82434-12.765441-231.348022 166.121396-458.60018 357.841938-509.047565 29.831539-8.430652 72.428519-8.430652 106.49245-12.628912-42.59698 12.628912-46.829372 8.464785-89.426352 21.059565-29.831539 12.628912-38.364588 29.490217-59.628946 46.283257l8.533049-12.628913c-42.59698 12.628912-25.530882 16.861305-59.594813 29.456085l8.533049 12.628913c-12.765441 0-34.063931 21.025432-42.59698 33.654344h-12.765442c-12.765441 21.025432-21.29849 37.886737-21.29849 50.51565l-4.232392-8.464785c-4.232392 8.430652-63.929602 79.937602-34.063931 63.144562-4.266524 4.164128-12.799573 8.39652-21.332622 25.189561l4.232392 8.430652c-12.765441 16.861305-25.530882 42.084997-25.530882 50.515649 8.533049-12.628912 12.765441-12.628912 17.066097-12.628912-38.364588 92.600647-38.364588 4.19826-68.127862 92.600647h4.232392c-4.232392 8.430652-8.533049 12.628912-12.765441 21.025432l4.232392 25.257825c-25.530882 29.456085-8.533049 130.384987-4.232392 185.064764 4.232392 21.059565 21.29849 46.283257 38.364588 84.169995h-8.533049c17.066098 29.456085 102.225926 121.988467 140.590514 117.790207 17.066098 21.059565-4.232392 0-8.533049 4.19826 42.59698 42.084997 55.362421 29.456085 80.893303 37.886737 29.831539 16.861305-25.530882-8.430652-12.765441 8.430652 51.130029 12.628912 38.364588 29.456085 102.225926 37.886737 8.533049-4.164128-17.066098-4.164128-21.29849-12.628912 42.59698 21.059565 136.255725 16.895437 195.918803-12.59478 68.161995-33.654345 149.157695-126.220859 153.355954-218.753242h4.232393c0-33.620213 4.232392-75.70521-8.533049-113.591947l12.765441 16.827173h0.068264z"  horiz-adv-x="1058" />

    
    <glyph glyph-name="suse1" unicode="&#58975;" d="M1017.582933 490.2912v-5.700267c0-2.833067-2.8672-11.400533-2.8672-14.2336v-2.833066c-2.8672-2.833067-2.8672-8.533333-5.7344-11.400534-8.6016-8.533333-22.9376-14.2336-43.008-22.766933-31.5392-14.2336-83.182933-22.766933-131.8912-22.766933-17.2032 0-34.4064 2.833067-48.7424 2.833066-45.8752 5.700267-77.4144 8.533333-86.016-31.300266-8.6016-51.234133 40.1408-113.902933 40.1408-113.902934v-2.8672c-2.8672 0-80.2816 34.2016-83.1488 37.034667l-2.8672 2.833067-2.8672 2.8672c-5.7344 5.700267-17.2032 17.066667-40.1408 45.568-45.8752 54.101333-100.352 59.767467-140.4928 48.401066-11.4688-2.833067-22.9376-8.533333-31.5392-17.066666-22.9376-19.933867-20.0704-62.634667-17.2032-79.735467 2.8672-17.066667 2.8672-19.933867 2.8672-19.933867v-2.833066l-65.9456 31.3344-2.8672 11.3664c-2.8672 5.7344-2.8672 14.267733-5.7344 22.801066-22.9376 59.8016-74.5472 102.5024-129.024 113.902934-37.2736 5.700267-106.0864 8.533333-143.36-62.634667-14.336-28.4672-14.336-65.467733 2.8672-96.802133 17.2032-31.300267 48.7424-54.101333 83.1488-56.968534 34.4064-2.833067 63.0784 5.7344 77.4144 22.801067 14.336 19.933867 17.2032 45.568 8.6016 68.334933-11.4688 22.801067-28.672 37.000533-54.4768 37.000534-17.2032 2.833067-31.5392-5.700267-37.2736-14.2336-2.8672-2.8672-2.8672-5.700267-2.8672-14.267734 0-17.066667 17.2032-22.766933 20.0704-22.766933 0 0 5.7344 0 11.4688 2.833067h5.7344c14.336 2.8672 25.8048-5.666133 28.672-17.066667v-5.700267c0-8.533333-2.8672-14.2336-11.4688-19.933866-2.8672-2.833067-5.7344-2.833067-8.6016-5.700267-8.6016-2.833067-17.2032-5.666133-25.8048-5.666133-28.672 0-65.9456 22.766933-68.8128 68.334933 0 25.6 11.4688 48.401067 34.4064 62.634667 25.8048 17.066667 71.68 22.766933 111.8208-2.833067 51.6096-31.300267 63.0784-91.101867 51.6096-133.8368-20.0704-59.8016-74.5472-91.101867-146.2272-85.4016C105.813333 185.685333 59.972267 211.35360000000003 31.266133 251.22133299999996c-11.4688 17.066667-22.9376 37.000533-25.8048 56.9344-11.4688 45.568 0 93.969067 8.6016 113.902934 28.672 68.334933 80.2816 125.269333 157.696 173.704533l5.7344 2.833067c163.4304 99.6352 278.084267 93.969067 361.233067 91.101866 100.352-2.833067 206.404267-37.000533 220.740267-42.7008V678.229333c5.7344 0 149.060267-22.766933 209.3056-56.9344 8.6016-5.700267 11.4688-8.533333 14.336-14.2336 17.2032-17.066667 37.2736-88.2688 40.1408-102.5024v-2.833066s-2.8672-2.833067-5.7344-2.833067c-14.336-8.533333-45.8752-31.300267-88.8832-28.4672-37.307733 2.833067-86.050133 25.634133-146.2272 62.634667 2.8672-5.700267 14.336-34.167467 17.2032-39.867734 8.6016-5.700267 91.7504-45.533867 131.8912-45.533866 31.5392 17.066667 65.9456 34.167467 80.2816 42.7008h5.802666zM974.574933 572.893867c0 34.167467-25.8048 62.634667-60.245333 62.634666-17.2032 0-31.5392-5.700267-43.008-17.066666-11.4688-11.400533-20.0704-25.634133-20.0704-42.7008 0-34.167467 25.8048-62.634667 60.2112-62.634667 17.237333 0 31.573333 5.700267 43.042133 17.066667 11.4688 11.3664 20.0704 25.6 20.0704 42.7008zM917.1968 618.461867c22.971733 0 43.042133-19.933867 43.042133-45.568 0-11.3664-5.7344-22.766933-14.336-31.300267s-20.104533-11.400533-31.573333-11.400533c-22.9376 0-43.008 19.933867-43.008 45.568 0 11.3664 5.7344 22.766933 14.336 31.300266 8.6016 5.700267 20.0704 11.400533 31.5392 11.400534zM943.035733 584.260267c0 5.700267-8.6016 11.400533-20.104533 11.400533-11.4688 0-20.0704-5.700267-20.0704-11.400533s8.6016-11.3664 20.0704-11.3664c11.502933-2.8672 20.104533 2.833067 20.104533 11.3664z"  horiz-adv-x="1058" />

    
    <glyph glyph-name="centos1" unicode="&#58976;" d="M149.777067 578.3210670000001L185.856 614.4l23.210667 23.176533 23.176533-23.176533 166.2976-166.2976h46.3872v46.353067L278.6304 660.753067l-23.210667 23.2448 23.210667 23.176533 36.0448 36.0448H149.777067zM444.928 540.842667v202.410666h-83.831467L301.806933 683.963733l143.121067-143.121066z m-295.150933-8.942934v-83.831466h202.410666L209.066667 591.189333l-59.2896-59.2896zM765.610667 683.963733l-23.210667-23.210666-166.331733-166.2976v-46.353067h46.3872l166.331733 166.2976 23.210667 23.176533 23.176533-23.176533 36.0448-36.078933V743.2192h-164.898133l36.078933-36.0448zM393.9328 776.021333h83.797333v-267.9808l32.768-32.802133 32.802134 32.802133V776.021333h83.831466L510.498133 892.654933zM668.842667 448.1024h202.376533v83.797333L811.9296 591.189333zM116.974933 349.696h267.9808l32.802134 32.802133-32.802134 32.802134H116.974933v83.831466L0.341333 382.49813300000005l116.6336-116.6336zM576.068267 224.15359999999998v-202.410667h83.8656l59.255466 59.2896-143.121066 143.121067z m92.7744 92.7744l143.086933-143.121067 59.2896 59.2896v83.831467h-202.376533zM576.068267 540.842667l143.121066 143.121066-59.255466 59.255467h-83.8656zM871.185067 186.67520000000002l-36.0448-36.078933-23.210667-23.176534-23.176533 23.176534-166.2976 166.331733h-46.3872v-46.3872l166.331733-166.331733 23.210667-23.176534-23.210667-23.210666-36.078933-36.0448h164.864zM904.021333 415.300267h-267.9808l-32.768-32.802134 32.768-32.802133h267.9808v-83.831467l116.6336 116.6336-116.6336 116.6336zM209.066667 173.80693299999996l143.086933 143.121067H149.777067v-83.831467zM255.419733 81.06666700000005l23.176534 23.210666 166.2976 166.263467v46.3872h-46.353067l-166.331733-166.331733-23.176534-23.176534-23.176533 23.176534-36.078933 36.078933v-164.898133H314.709333l-36.078933 36.078933-23.210667 23.210667z m371.712-92.091734h-83.831466v268.014934l-32.802134 32.802133-32.768-32.802133v-268.014934H393.898667l116.6336-116.599466 116.599466 116.599466zM444.928 224.15359999999998l-143.121067-143.086933 59.2896-59.2896h83.831467z"  horiz-adv-x="1058" />

    
    <glyph glyph-name="fedora1" unicode="&#58966;" d="M1004.43010595 396.38773045C1004.53065573 667.1079048199999 785.15118892 886.64825123 514.43101457 886.74880099S24.17049378 667.4698839499999 24.06994402 396.7497096v-379.31391538a111.4091343 111.4091343 0 0 1 111.44935421-111.20803479h378.93182627c270.63973456 0.0804398 489.97898144 219.52023648 489.97898145 490.15997102M656.22628638 326.30454758999997H426.26898482V556.24173922C426.26898482 683.2561963 529.21182931 786.1990408 656.22628638 786.1990408S886.18358797 683.2561963 886.18358797 556.24173922c-0.02010994-126.99434714-102.96295444-229.93719163-229.95730159-229.93719163z m-122.38916812 107.54802351h122.38916812a122.38916812 122.38916812 0 1 1-122.38916812 122.38916812v-122.38916812zM725.58551098 779.3616571a183.18155313 183.18155313 0 0 1-50.83795877 6.8373837c-127.03456704 0-230.03774139-103.00317435-230.05785131-230.05785135v-121.96685911h-96.34678025a53.55280228 53.55280228 0 1 1-0.56307864-107.10560458h79.77617975a17.13367915 17.13367915 0 0 0 17.15378907-17.11356916v-105.53702831a121.44400037 121.44400037 0 0 0-121.44400037-121.20268095c-22.68402591 0-28.31481246 2.95616294-43.79947553 2.95616295-32.5379024 0-54.31698045-21.81929796-54.31698047-51.80323646 0-24.79557087 21.27632926-46.13222999 47.27849725-52.96961367 16.53038059-4.62528897 33.64394977-6.9580434 50.8178488-6.8373837 127.05467699 0.02010994 230.05785133 103.02328429 230.05785134 230.05785135v121.92663923h96.34678021a53.57291223 53.57291223 0 1 1 0.58318862 107.10560453H570.45734094a17.13367915 17.13367915 0 0 0-17.15378909 17.11356922v105.53702829a121.46411031 121.46411031 0 0 0 121.44400036 121.24290085c22.66391596 0 28.29470253-2.95616294 43.79947554-2.95616295 32.51779245 0 54.29687052 21.799188 54.29687051 51.80323644 0 24.81568081-21.23610935 46.15233994-47.25838728 52.96961368zM1004.43010595 396.38773045C1004.53065573 667.1079048199999 785.15118892 886.64825123 514.43101457 886.74880099S24.17049378 667.4698839499999 24.06994402 396.7497096v-379.31391538a111.4091343 111.4091343 0 0 1 111.44935421-111.20803479h378.93182627c270.63973456 0.0804398 489.97898144 219.52023648 489.97898145 490.15997102M656.22628638 326.30454758999997H426.26898482V556.24173922C426.26898482 683.2561963 529.21182931 786.1990408 656.22628638 786.1990408S886.18358797 683.2561963 886.18358797 556.24173922c-0.02010994-126.99434714-102.96295444-229.93719163-229.95730159-229.93719163z m-122.38916812 107.54802351h122.38916812a122.38916812 122.38916812 0 1 1-122.38916812 122.38916812v-122.38916812zM725.58551098 779.3616571a183.18155313 183.18155313 0 0 1-50.83795877 6.8373837c-127.03456704 0-230.03774139-103.00317435-230.05785131-230.05785135v-121.96685911h-96.34678025a53.55280228 53.55280228 0 1 1-0.56307864-107.10560458h79.77617975a17.13367915 17.13367915 0 0 0 17.15378907-17.11356916v-105.53702831a121.44400037 121.44400037 0 0 0-121.44400037-121.20268095c-22.68402591 0-28.31481246 2.95616294-43.79947553 2.95616295-32.5379024 0-54.31698045-21.81929796-54.31698047-51.80323646 0-24.79557087 21.27632926-46.13222999 47.27849725-52.96961367 16.53038059-4.62528897 33.64394977-6.9580434 50.8178488-6.8373837 127.05467699 0.02010994 230.05785133 103.02328429 230.05785134 230.05785135v121.92663923h96.34678021a53.57291223 53.57291223 0 1 1 0.58318862 107.10560453H570.45734094a17.13367915 17.13367915 0 0 0-17.15378909 17.11356922v105.53702829a121.46411031 121.46411031 0 0 0 121.44400036 121.24290085c22.66391596 0 28.29470253-2.95616294 43.79947554-2.95616295 32.51779245 0 54.29687052 21.799188 54.29687051 51.80323644 0 24.81568081-21.23610935 46.15233994-47.25838728 52.96961368z"  horiz-adv-x="1024" />

    
    <glyph glyph-name="image" unicode="&#58965;" d="M489.11403463 748.46859491l45.55537294 0 0-728.90808206-45.55537294 0 0 728.90808206ZM10.50726741 31.826361460000044l0.01164288-0.01513586-8.65420515-12.20763307 17.28861753 0 0.03027171-0.04307854 24.969472 0 16.90556416 0 360.0116736 0 0 45.57749362L421.07030301 528.29574258l0 23.90064924 0 59.79120868-386.98838927-546.85075684L10.50726741 31.826361460000044zM93.12680846 65.20320797l13.14023424 18.34463232 0.03492864-0.05122845L379.20574578 469.11346119l0-386.69731612 0.00349297 0 0-17.2781386 0-0.00582201-3.98654577 0 0-0.00698595L124.6652325 65.12519965000001l-21.44631467 0 0 0.01280682 0 0.03958556L93.12680846 65.20320797zM1004.60683264 19.566333729999997l17.52846222 0.0663643-12.15291164 16.83337784-407.20055183 575.02320527 0-59.748129 0-23.86571947 0-508.31375587 376.86135126 0 15.91591367 0-0.08615822-0.02794269 7.49107427 0.02794269 1.63932729 0L1004.60683264 19.566333729999997zM902.57849344 65.0821211l0.01629981 0.04424363L648.56191317 65.12636358999998l0 0.04075065-3.88408775 0 0 13.52910848-0.03143566 0L644.64638862 468.73622983l269.70894905-380.83159722 0.03609259 0 7.5038811-10.70685754 0-0.06054342 8.49353273-12.05511055L902.57849344 65.0821211z"  horiz-adv-x="1024" />

    
    <glyph glyph-name="plus" unicode="&#58959;" d="M963.94596503 426.85568948h-408.50773333v408.50773334c0 23.57111467-19.28578845 42.85568948-42.85690311 42.85568948-23.56990103 0-42.85447585-19.28457482-42.85447584-42.85568948v-408.50773334H61.21790578c-23.56990103 0-42.85568948-19.28457482-42.85568948-42.85447585 0-23.57111467 19.28457482-42.85568948 42.85568948-42.85568948h408.50773333v-408.50773333c0-23.56990103 19.28457482-42.85447585 42.85447586-42.85447585 23.57111467 0 42.85568948 19.28457482 42.85568948 42.85568948V341.14431052h408.50773333c23.56990103 0 42.85568948 19.28457482 42.85568947 42.85568948 0.00121363 23.56990103-19.28457482 42.85568948-42.85326222 42.85568948z"  horiz-adv-x="1024" />

    
    <glyph glyph-name="iconset0141" unicode="&#58958;" d="M512 871.15093333C243.3024 871.15093333 24.84906667 652.6976 24.84906667 384s218.45333333-487.15093333 487.15093333-487.15093333 487.15093333 218.45333333 487.15093333 487.15093333S780.6976 871.15093333 512 871.15093333zM512-61.64480000000003C266.24-61.64480000000003 66.3552 138.24 66.3552 384c0 113.59573333 45.8752 218.45333333 113.59573333 296.00426667l628.05333334-628.05333334C730.45333333-16.86186667000004 625.59573333-61.64480000000003 512-61.64480000000003zM839.68 87.99573333000001L215.99573333 711.6800000000001C293.54666667 784.86186667 398.40426667 825.27573333 512 825.27573333c245.76 0 445.6448-199.8848 445.6448-445.6448C957.6448 270.40426666999997 912.86186667 165.54666667000004 839.68 87.99573333000001z"  horiz-adv-x="1024" />

    
    <glyph glyph-name="gaojing" unicode="&#59052;" d="M512 689.856l396.992-687.552h-793.984l396.992 687.552M512 825.088l-512-886.784h1024l-512 886.784zM480 514.304h64v-320h-64v320zM544 130.304v-64h-64v64M480 130.304z"  horiz-adv-x="1024" />

    
    <glyph glyph-name="information1" unicode="&#58892;" d="M512 832a448 448 0 1 0-448-448 448 448 0 0 0 448 448m0 64a512 512 0 1 1 512-512 512 512 0 0 1-512 512zM600.32 128H423.68v35.2h51.84V459.52h-51.84v35.2h118.4v-331.52h58.24z m-46.72 465.28A46.72 46.72 0 1 0 506.88 640a46.72 46.72 0 0 0 46.72-46.72zM512 832a448 448 0 1 0-448-448 448 448 0 0 0 448 448m0 64a512 512 0 1 1 512-512 512 512 0 0 1-512 512z"  horiz-adv-x="1024" />

    
    <glyph glyph-name="yanjing" unicode="&#59009;" d="M512.36154027 142.6276352c176.5834752 0 416.104448 180.45883733 432.750592 230.0674048-6.49570987 54.34791253-231.92316587 250.89256107-432.750592 250.89256107-191.03744 0-432.86309547-156.55130453-432.88603307-252.08968534C84.50102613 324.42996053 316.56290987 142.6276352 512.36154027 142.6276352M512.36154027 94.50782719999995C311.7580288 94.50782719999995 31.40266667 283.30830506999996 31.40266667 371.08394667000005c0 139.0936064 282.03199147 300.62455467 480.9588736 300.62455466 217.6843776 0 480.9654272-211.5534848 480.9654272-300.62455466C993.32696747 296.96709973 705.56276053 94.50782719999995 512.36154027 94.50782719999995L512.36154027 94.50782719999995 512.36154027 94.50782719999995 512.36154027 94.50782719999995zM512.36154027 94.50782719999995M512.36154027 262.86762667000005c66.2765568 0 120.24436053 53.96671147 120.24436053 120.24436053 0 66.27328-53.96780373 120.23671467-120.24436053 120.23671467-66.27546453 0-120.2388992-53.96343467-120.2388992-120.23671467C392.12264107 316.83433813 446.08607573 262.86762667000005 512.36154027 262.86762667000005M512.36154027 214.74781867000002c-92.99339947 0-168.35979947 75.37076907-168.35979947 168.36416853 0 92.99012267 75.3664 168.35761493 168.35979947 168.35761493 92.9988608 0 168.36307627-75.3664 168.36307626-168.35761493C680.72461653 290.11858772999994 605.36040107 214.74781867000002 512.36154027 214.74781867000002L512.36154027 214.74781867000002 512.36154027 214.74781867000002 512.36154027 214.74781867000002zM512.36154027 214.74781867000002"  horiz-adv-x="1024" />

    
    <glyph glyph-name="suoding" unicode="&#58957;" d="M854.18666667 452.48v68.48c0 188.26666667-154.02666667 342.18666667-342.18666667 342.18666667S169.81333333 709.12 169.81333333 520.8533333299999v-68.48c-37.65333333 0-68.48-30.82666667-68.48-68.48v-410.66666666c0-37.65333333 30.82666667-68.48 68.48-68.48h684.48c37.65333333 0 68.48 30.82666667 68.48 68.48V384c-0.10666667 37.65333333-30.93333333 68.48-68.58666666 68.48z m-616 68.37333333C238.18666667 671.89333333 361.06666667 794.66666667 512 794.66666667s273.81333333-122.77333333 273.81333333-273.81333334v-68.48H238.18666667v68.48zM854.18666667-26.66666667000004H169.81333333V384h684.48v-410.66666667z"  horiz-adv-x="1024" />

    
    <glyph glyph-name="cunchu_hover" unicode="&#59046;" d="M513.21362963 90.05890369999997c-268.21214815 0-485.57321482 77.6722963-485.57321481 173.42767408v-173.42767408c0-95.75537778 217.36106667-173.42767408 485.57321481-173.42767407s485.57321482 77.6722963 485.57321482 173.42767407V263.48657777999995c0-95.75537778-217.36106667-173.42767408-485.57321482-173.42767408zM513.21362963 298.19638518c-268.21214815 0-485.57321482 77.6722963-485.57321481 173.42767407v-173.42767407c0-95.75537778 217.36106667-173.42767408 485.57321481-173.42767407s485.57321482 77.6722963 485.57321482 173.42767407V471.62405925c0-95.87674075-217.36106667-173.42767408-485.57321482-173.42767407zM513.21362963 506.2125037c-268.21214815 0-485.57321482 77.6722963-485.57321481 173.42767408v-173.42767408c0-95.75537778 217.36106667-173.42767408 485.57321481-173.42767407s485.57321482 77.6722963 485.57321482 173.42767407V679.6401777799999c0-95.75537778-217.36106667-173.42767408-485.57321482-173.42767408zM513.21362963 540.92231111c268.21214815 0 485.57321482 77.6722963 485.57321482 173.42767407S781.42577778 887.7776592499999 513.21362963 887.7776592499999s-485.57321482-77.6722963-485.57321481-173.42767407S245.00148148 540.92231111 513.21362963 540.92231111z"  horiz-adv-x="1024" />

    
    <glyph glyph-name="cunchu_link" unicode="&#59044;" d="M962.37795555 151.83265185000005v-61.77374815c0-15.17037037-13.71401482-29.97665185-25.2434963-39.68568888-20.87442963-17.59762963-52.91425185-34.34571852-92.84266666-48.66654815-42.35567408-15.17037037-91.99312592-27.06394075-147.57736296-35.43798519-58.0114963-8.73813333-119.78524445-13.22856297-183.5008-13.22856296s-125.4893037 4.49042963-183.5008 13.22856296c-55.46287408 8.37404445-105.10032592 20.26761482-147.57736296 35.43798519-39.92841482 14.19946667-71.96823703 31.06891852-92.84266667 48.66654815-11.52948148 9.70903703-25.2434963 24.51531852-25.2434963 39.68568888v61.77374815c25.12213333-16.86945185 56.43377778-32.03982222 93.57084445-45.26838518 95.51265185-34.10299259 221.8514963-52.91425185 355.59348148-52.91425185s260.08082963 18.81125925 355.59348148 52.91425185c37.13706667 13.22856297 68.44871111 28.39893333 93.57084444 45.26838518m36.4088889 111.65392593c0-95.75537778-217.36106667-173.42767408-485.57321482-173.42767408s-485.57321482 77.6722963-485.57321481 173.42767408v-173.42767408c0-95.75537778 217.36106667-173.42767408 485.57321481-173.42767407s485.57321482 77.6722963 485.57321482 173.42767407V263.48657777999995zM962.37795555 359.97013332999995v-61.77374815c0-15.17037037-13.71401482-29.97665185-25.2434963-39.68568888-20.87442963-17.59762963-52.91425185-34.34571852-92.84266666-48.66654815-42.35567408-15.17037037-91.99312592-27.06394075-147.57736296-35.43798518-58.0114963-8.73813333-119.78524445-13.22856297-183.5008-13.22856297s-125.4893037 4.49042963-183.5008 13.22856297c-55.46287408 8.37404445-105.10032592 20.26761482-147.57736296 35.43798518-39.92841482 14.19946667-71.96823703 31.06891852-92.84266667 48.66654815-11.52948148 9.70903703-25.2434963 24.51531852-25.2434963 39.68568888v61.77374815c25.12213333-16.86945185 56.43377778-32.03982222 93.57084445-45.26838518 95.51265185-34.10299259 221.8514963-52.91425185 355.59348148-52.91425185s260.08082963 18.81125925 355.59348148 52.91425185c37.13706667 13.22856297 68.44871111 28.39893333 93.57084444 45.26838518m36.4088889 111.65392592c0-95.75537778-217.36106667-173.42767408-485.57321482-173.42767407s-485.57321482 77.6722963-485.57321481 173.42767407v-173.42767407c0-95.75537778 217.36106667-173.42767408 485.57321481-173.42767407s485.57321482 77.6722963 485.57321482 173.42767407V471.62405925zM962.37795555 567.9862518499999v-61.77374815c0-15.17037037-13.71401482-29.97665185-25.2434963-39.68568888-20.87442963-17.59762963-52.91425185-34.34571852-92.84266666-48.66654815-42.35567408-15.17037037-91.99312592-27.06394075-147.57736296-35.43798519-58.0114963-8.73813333-119.78524445-13.22856297-183.5008-13.22856296s-125.4893037 4.49042963-183.5008 13.22856296c-55.46287408 8.37404445-105.10032592 20.26761482-147.57736296 35.43798519-39.92841482 14.19946667-71.96823703 31.06891852-92.84266667 48.66654815-11.52948148 9.70903703-25.2434963 24.51531852-25.2434963 39.68568888v61.77374815c25.12213333-16.86945185 56.43377778-32.03982222 93.57084445-45.26838518 95.51265185-34.10299259 221.8514963-52.91425185 355.59348148-52.91425185s260.08082963 18.81125925 355.59348148 52.91425185c37.13706667 13.22856297 68.44871111 28.39893333 93.57084444 45.26838518m36.4088889 111.65392593c0-95.75537778-217.36106667-173.42767408-485.57321482-173.42767408s-485.57321482 77.6722963-485.57321481 173.42767408v-173.42767408c0-95.75537778 217.36106667-173.42767408 485.57321481-173.42767407s485.57321482 77.6722963 485.57321482 173.42767407V679.6401777799999zM513.21362963 851.36877037c63.71555555 0 125.4893037-4.49042963 183.5008-13.22856296 55.46287408-8.37404445 105.10032592-20.26761482 147.57736296-35.43798519 39.92841482-14.19946667 71.96823703-31.06891852 92.84266666-48.66654814 11.52948148-9.70903703 25.2434963-24.51531852 25.2434963-39.6856889s-13.71401482-29.97665185-25.2434963-39.68568888c-20.87442963-17.59762963-52.91425185-34.34571852-92.84266666-48.66654815-42.35567408-15.17037037-91.99312592-27.06394075-147.57736296-35.43798518-58.0114963-8.73813333-119.78524445-13.22856297-183.5008-13.22856297s-125.4893037 4.49042963-183.5008 13.22856297c-55.46287408 8.37404445-105.10032592 20.26761482-147.57736296 35.43798518-39.92841482 14.19946667-71.96823703 31.06891852-92.84266667 48.66654815-11.52948148 9.70903703-25.2434963 24.51531852-25.2434963 39.68568888s13.71401482 29.97665185 25.2434963 39.6856889c20.87442963 17.59762963 52.91425185 34.34571852 92.84266667 48.66654814 42.35567408 15.17037037 91.99312592 27.06394075 147.57736296 35.43798519 58.0114963 8.73813333 119.78524445 13.22856297 183.5008 13.22856296m0 36.40888888c-268.21214815 0-485.57321482-77.6722963-485.57321481-173.42767407S245.00148148 540.92231111 513.21362963 540.92231111s485.57321482 77.6722963 485.57321482 173.42767407S781.42577778 887.7776592499999 513.21362963 887.7776592499999zM513.21362963 888.38447408c-129.73700741 0-251.70678518-18.08308148-343.57854815-50.85108149-91.99312592-32.88936297-142.60148148-76.58002963-142.60148148-123.18340741s50.60835555-90.29404445 142.60148148-123.1834074c91.7504-32.768 213.72017778-50.85108148 343.57854815-50.85108148 129.73700741 0 251.70678518 18.08308148 343.57854815 50.85108148 91.99312592 32.88936297 142.60148148 76.58002963 142.60148147 123.1834074s-50.60835555 90.29404445-142.60148147 123.18340741c-91.87176297 32.768-213.84154075 50.85108148-343.57854815 50.85108149z m0-346.85534816c-267.36260741 0-484.9664 77.55093333-484.9664 172.82085926S245.85102222 887.17084445 513.21362963 887.17084445s484.9664-77.55093333 484.9664-172.82085927S780.57623703 541.5291259200001 513.21362963 541.5291259200001z"  horiz-adv-x="1024" />

    
    <glyph glyph-name="zonglan_hover1" unicode="&#59038;" d="M510.42228148 884.01540741c264.57125925 0 480.96142222-216.14743703 480.96142222-480.23324444 0-20.6317037-13.83537778-34.34571852-34.34571852-34.34571852h-446.6157037c-20.6317037 0-34.34571852 13.71401482-34.34571851 34.34571852V849.66968889c0 20.51034075 13.71401482 34.22435555 34.34571851 34.34571852zM476.68337778 330.60029629999997c-6.91768889 0.36408889-19.53943703 1.82044445-28.76302223 10.92266667-6.91768889 6.91768889-10.8013037 16.74808889-10.8013037 28.52029628V874.06364445c-232.89552592-32.768-412.02725925-232.77416297-412.02725926-474.65054815 0-264.69262222 214.56971852-479.3837037 479.38370371-479.38370371 250.37179259 0 427.92580741 207.28794075 467.61149629 373.79792593 3.51952592 14.92764445 5.5826963 27.67075555 6.79632593 36.77297778h-29.85528889c-257.04675555-1.69908148-444.6738963-1.57771852-472.34465185 0z"  horiz-adv-x="1024" />

    
    <glyph glyph-name="gonggao_link" unicode="&#59036;" d="M731.90968889 879.28225185c-4.85451852 2.42725925-9.95176297 3.51952592-15.17037037 3.51952593-7.40314075 0-14.68491852-2.42725925-20.75306667-7.03905186l-462.63561482-266.99851851H65.62702222c-18.93262222 0-34.22435555-15.29173333-34.22435555-34.22435556v-342.60764444c0-18.93262222 15.29173333-34.22435555 34.22435555-34.22435556h167.60225186l462.63561481-266.99851852c6.06814815-4.73315555 13.47128889-7.03905185 20.75306666-7.03905185 5.21860741 0 10.31585185 1.21362963 15.17037037 3.51952593 11.65084445 5.82542222 19.05398518 17.71899259 19.05398519 30.70482962v890.80414815c0.12136297 12.86447408-7.28177778 24.75804445-18.93262222 30.58346667zM79.21967408 552.69451852H218.30162963v-300.98014815H79.09831111V552.69451852z m631.20877037-586.78992593l-440.54755556 271.48894816-16.86945186 10.4372148h-1.33499258v310.6891852h1.33499258l16.86945186 10.4372148 440.54755556 271.48894815v-874.54151111zM860.43306667 677.21291852c-15.17037037 0-27.54939259-15.29173333-27.54939259-34.22435555v-479.62642964c0-18.93262222 12.25765925-34.22435555 27.54939259-34.22435555 15.17037037 0 27.54939259 15.29173333 27.54939258 34.22435555V642.98856297c0 18.93262222-12.25765925 34.22435555-27.54939258 34.22435555zM966.74702222 540.19413333c-13.22856297 0-24.02986667-15.29173333-24.02986667-34.22435555v-205.58885926c0-18.93262222 10.67994075-34.22435555 24.02986667-34.22435555s24.02986667 15.29173333 24.02986667 34.22435555V505.84841482c0 19.05398518-10.67994075 34.34571852-24.02986667 34.34571851z"  horiz-adv-x="1024" />

    
    <glyph glyph-name="gonggao_hover" unicode="&#59037;" d="M731.90968889 879.28225185c-4.85451852 2.42725925-9.95176297 3.51952592-15.17037037 3.51952593-7.40314075 0-14.68491852-2.42725925-20.75306667-7.03905186l-462.63561482-266.99851851H65.62702222c-18.93262222 0-34.22435555-15.29173333-34.22435555-34.22435556v-342.60764444c0-18.93262222 15.29173333-34.22435555 34.22435555-34.22435556h167.60225186l462.63561481-266.99851852c6.06814815-4.73315555 13.47128889-7.03905185 20.75306666-7.03905185 5.21860741 0 10.31585185 1.21362963 15.17037037 3.51952593 11.65084445 5.82542222 19.05398518 17.71899259 19.05398519 30.70482962v890.80414815c0.12136297 12.86447408-7.28177778 24.75804445-18.93262222 30.58346667zM860.43306667 677.21291852c-15.17037037 0-27.54939259-15.29173333-27.54939259-34.22435555v-479.62642964c0-18.93262222 12.25765925-34.22435555 27.54939259-34.22435555 15.17037037 0 27.54939259 15.29173333 27.54939258 34.22435555V642.98856297c0 18.93262222-12.25765925 34.22435555-27.54939258 34.22435555zM966.74702222 540.19413333c-13.22856297 0-24.02986667-15.29173333-24.02986667-34.22435555v-205.58885926c0-18.93262222 10.67994075-34.22435555 24.02986667-34.22435555s24.02986667 15.29173333 24.02986667 34.22435555V505.84841482c0 19.05398518-10.67994075 34.34571852-24.02986667 34.34571851z"  horiz-adv-x="1024" />

    
    <glyph glyph-name="rizhi_hover1" unicode="&#59035;" d="M966.86838518 872.36456297h-915.07674073c-12.1362963 0-22.08805925-9.70903703-22.08805927-21.72397038v-896.14411851c0-12.01493333 9.8304-21.72397037 22.08805927-21.72397038h910.5863111c14.44219259 0 26.69985185 10.19448889 26.69985186 24.02986667V850.64059259c-0.36408889 12.1362963-10.19448889 21.72397037-22.20942223 21.72397038zM402.28788148 667.01842963h412.63407407v-60.68148148h-412.63407407v60.68148148z m-176.9472 1.21362962h66.74962963v-66.74962962h-66.74962963v66.74962962z m179.13173334-233.86642962h412.63407407v-60.68148148h-412.63407407v60.68148148z m-179.13173334-2.79134815h66.74962963v-66.74962963h-66.74962963v66.74962963z m176.09765927-238.96367407h412.63407407v-60.68148149h-412.63407407v60.68148149z m-175.61220742 1.94180741h66.74962964v-66.74962964h-66.74962964v66.74962964z"  horiz-adv-x="1024" />

    
    <glyph glyph-name="rizhi_link1" unicode="&#59034;" d="M966.86838518 872.36456297h-915.07674073c-12.1362963 0-22.08805925-9.70903703-22.08805927-21.72397038v-896.14411851c0-12.01493333 9.8304-21.72397037 22.08805927-21.72397038h910.5863111c14.44219259 0 26.69985185 10.19448889 26.69985186 24.02986667V850.64059259c-0.36408889 12.1362963-10.19448889 21.72397037-22.20942223 21.72397038z m-35.6807111-880.73102222H84.31691852V811.31899259h846.99211851c-0.12136297 0-0.12136297-819.68545185-0.12136295-819.68545184zM292.09031111 668.23205925h-66.74962963v-66.74962962h66.74962963v66.74962962z m0-236.65777777h-66.74962963v-66.74962963h66.74962963v66.74962963z m0.36408889-237.02186666h-66.62826667v-66.74962964h66.74962964l-0.12136297 66.74962964z m109.83348148 472.46601481h412.63407407v-60.68148148h-412.63407407v60.68148148z m2.18453334-232.6528h412.63407407v-60.68148148h-412.63407407v60.68148148z m-3.03407407-241.75502222h412.63407407v-60.68148149h-412.63407407v60.68148149z"  horiz-adv-x="1024" />

    
    <glyph glyph-name="shezhi_link" unicode="&#59028;" d="M510.17955555 592.13748148c-104.97896297 0-190.41848889-85.1968-190.41848888-189.93303703S405.20059259 212.27140741000005 510.17955555 212.27140741000005 700.59804445 297.46820741 700.59804445 402.20444445 615.15851852 592.13748148 510.17955555 592.13748148z m0-313.48053333c-68.32734815 0-123.91158518 55.46287408-123.91158518 123.5474963 0 68.08462222 55.58423703 123.5474963 123.91158518 123.5474963S634.09114075 470.28906667 634.09114075 402.20444445s-55.58423703-123.5474963-123.9115852-123.5474963zM968.32474075 325.86714075l-61.6523852 35.55934814c1.33499259 13.47128889 2.06317037 27.1853037 2.06317037 40.77795556s-0.72817778 27.30666667-2.06317037 40.77795555l61.6523852 35.55934815c23.42305185 13.47128889 31.43300741 43.44794075 17.9617185 66.74962963L872.32663703 742.02074075c-13.47128889 23.30168889-43.44794075 31.31164445-66.87099258 17.84035555L743.80325925 724.30174815c-22.20942222 16.01991111-45.8752 29.73392592-70.7546074 40.89931852v70.99733333c0 26.94257778-21.9666963 48.90927408-48.90927407 48.90927408H396.3410963c-26.94257778 0-48.90927408-21.9666963-48.90927408-48.90927408v-70.99733333c-24.87940741-11.16539259-48.66654815-24.87940741-70.7546074-40.89931852l-61.65238519 35.55934815c-23.42305185 13.47128889-53.3997037 5.46133333-66.8709926-17.84035555l-113.83845925-196.85072593c-13.47128889-23.30168889-5.46133333-53.27834075 17.96171852-66.74962964l61.65238518-35.55934815c-1.33499259-13.47128889-2.06317037-27.1853037-2.06317037-40.77795555s0.72817778-27.30666667 2.06317037-40.77795556L52.2770963 325.74577778c-23.42305185-13.47128889-31.43300741-43.44794075-17.96171852-66.74962963l113.7170963-196.608c13.47128889-23.30168889 43.44794075-31.31164445 66.87099259-17.84035556l61.65238518 35.55934816c22.20942222-16.01991111 45.8752-29.73392592 70.7546074-40.89931853v-70.99733333c0-26.94257778 21.9666963-48.90927408 48.90927408-48.90927407h227.79828149c26.94257778 0 48.90927408 21.9666963 48.90927407 48.90927407v70.99733333c24.87940741 11.16539259 48.66654815 24.87940741 70.75460741 40.89931853l61.65238518-35.55934816c23.42305185-13.47128889 53.3997037-5.46133333 66.8709926 17.84035556l113.83845925 196.85072593c13.71401482 23.30168889 5.5826963 53.15697778-17.71899258 66.62826667zM823.53872592 110.69060740999998l-56.43377777 32.52527407c-17.23354075 9.95176297-38.59342222 8.49540741-54.3706074-3.51952593-23.30168889-17.96171852-48.90927408-32.64663703-75.97321483-43.81202963-18.32580741-7.5245037-30.21937778-25.2434963-30.21937777-45.14702222v-64.92918518H413.81736297v64.92918518c0 19.90352592-11.89357037 37.62251852-30.21937779 45.14702222-27.06394075 11.16539259-52.67152592 25.97167408-75.97321481 43.81202963-15.77718518 12.1362963-37.0157037 13.47128889-54.3706074 3.51952593l-56.43377779-32.52527407L100.57955555 277.20059259000004l56.43377778 32.52527408c17.23354075 9.95176297 26.69985185 29.00574815 24.02986667 48.66654815-1.94180741 14.44219259-2.91271111 29.24847408-2.91271111 43.81202963s0.9709037 29.36983703 2.91271111 43.81202963c2.54862222 19.6608-6.79632592 38.71478518-24.02986667 48.66654814L100.57955555 527.2082963l96.3621926 166.50998518 56.43377777-32.52527407c17.23354075-9.95176297 38.59342222-8.49540741 54.37060741 3.51952592 23.30168889 17.96171852 48.90927408 32.64663703 75.97321482 43.81202964 18.32580741 7.5245037 30.21937778 25.2434963 30.21937777 45.14702221v64.92918519H606.66311111v-64.92918519c0-19.90352592 11.89357037-37.62251852 30.21937778-45.14702221 27.06394075-11.16539259 52.67152592-25.85031111 75.97321481-43.81202964 15.77718518-12.1362963 37.0157037-13.47128889 54.37060741-3.51952592l56.43377778 32.52527407L919.77955555 527.2082963l-56.43377777-32.52527408c-17.23354075-9.95176297-26.69985185-29.00574815-24.02986667-48.66654814 1.94180741-14.44219259 2.91271111-29.24847408 2.91271111-43.81202963 0-14.68491852-0.9709037-29.36983703-2.91271111-43.81202963-2.54862222-19.6608 6.79632592-38.71478518 24.02986667-48.66654815L919.77955555 277.20059259000004l-96.24082963-166.50998518z"  horiz-adv-x="1024" />

    
    <glyph glyph-name="shezhi_hover" unicode="&#59029;" d="M968.32474075 325.86714075l-61.6523852 35.55934814c1.33499259 13.47128889 2.06317037 27.1853037 2.06317037 40.77795556s-0.72817778 27.30666667-2.06317037 40.77795555l61.6523852 35.55934815c23.42305185 13.47128889 31.43300741 43.44794075 17.9617185 66.74962963L872.32663703 742.02074075c-13.47128889 23.30168889-43.44794075 31.31164445-66.87099258 17.84035555L743.80325925 724.30174815c-22.20942222 16.01991111-45.8752 29.73392592-70.7546074 40.89931852v70.99733333c0 26.94257778-21.9666963 48.90927408-48.90927407 48.90927408H396.3410963c-26.94257778 0-48.90927408-21.9666963-48.90927408-48.90927408v-70.99733333c-24.87940741-11.16539259-48.66654815-24.87940741-70.7546074-40.89931852l-61.65238519 35.55934815c-23.42305185 13.47128889-53.3997037 5.46133333-66.8709926-17.84035555l-113.83845925-196.85072593c-13.47128889-23.30168889-5.46133333-53.27834075 17.96171852-66.74962964l61.65238518-35.55934815c-1.33499259-13.47128889-2.06317037-27.1853037-2.06317037-40.77795555s0.72817778-27.30666667 2.06317037-40.77795556L52.2770963 325.74577778c-23.42305185-13.47128889-31.43300741-43.44794075-17.96171852-66.74962963l113.7170963-196.608c13.47128889-23.30168889 43.44794075-31.31164445 66.87099259-17.84035556l61.65238518 35.55934816c22.20942222-16.01991111 45.8752-29.73392592 70.7546074-40.89931853v-70.99733333c0-26.94257778 21.9666963-48.90927408 48.90927408-48.90927407h227.79828149c26.94257778 0 48.90927408 21.9666963 48.90927407 48.90927407v70.99733333c24.87940741 11.16539259 48.66654815 24.87940741 70.75460741 40.89931853l61.65238518-35.55934816c23.42305185-13.47128889 53.3997037-5.46133333 66.8709926 17.84035556l113.83845925 196.85072593c13.71401482 23.30168889 5.5826963 53.15697778-17.71899258 66.62826667zM510.17955555 592.13748148c-104.97896297 0-190.41848889-85.1968-190.41848888-189.93303703S405.20059259 212.27140741000005 510.17955555 212.27140741000005 700.59804445 297.46820741 700.59804445 402.20444445 615.15851852 592.13748148 510.17955555 592.13748148zM386.26797037 402.20444445a123.91158518 123.5474963 0 1 1 247.82317038 0 123.91158518 123.5474963 0 1 1-247.82317038 0Z"  horiz-adv-x="1024" />

    
    <glyph glyph-name="yonghu_hover" unicode="&#59031;" d="M261.02139259 422.47205925c25.85031111 20.51034075 30.82619259 57.04059259 11.40811852 85.1968-104.00805925 149.15508148 17.3549037 283.98933333 22.57351111 289.6933926l-44.17611852 39.56432593c-1.69908148-1.69908148-158.86411852-174.39857778-27.79211852-362.26844445 1.21362963-1.69908148 2.3058963-4.97588148 0.3640889-6.31087408-88.59496297-70.75460741-194.42346667-172.6994963-194.42346667-257.65357036h59.71057777c0 46.23928889 66.02145185 127.30974815 172.33540741 211.77837036zM938.34808889-78.27152592000004l55.94832593-1.09226667c3.39816297 163.47591111-39.80705185 291.27111111-128.28065185 379.86607407-74.03140741 74.15277037-164.32545185 105.70714075-233.13825186 118.9357037 89.68722963 36.28752592 152.91733333 122.69795555 153.16005926 223.91466667-0.24272592 133.62062222-110.4402963 241.87638518-246.60954074 241.99774815-136.04788148-0.12136297-246.36681482-108.49848889-246.48817778-241.99774815 0.12136297-103.03715555 65.77872592-191.0253037 158.13594074-225.85647407-104.8576-20.87442963-189.20485925-66.99235555-251.34269629-137.98968889-130.58654815-149.15508148-114.93072592-351.95259259-114.20254815-360.56936297m454.62565926 454.86838519"  horiz-adv-x="1024" />

    
    <glyph glyph-name="yonghu_link" unicode="&#59027;" d="M261.02139259 422.47205925c25.85031111 20.51034075 30.82619259 57.04059259 11.40811852 85.1968-104.00805925 149.15508148 17.3549037 283.98933333 22.57351111 289.6933926l-44.17611852 39.56432593c-1.69908148-1.69908148-158.86411852-174.39857778-27.79211852-362.26844445 1.21362963-1.69908148 2.3058963-4.97588148 0.3640889-6.31087408-88.59496297-70.75460741-194.42346667-172.6994963-194.42346667-257.65357036h59.71057777c0 46.23928889 66.02145185 127.30974815 172.33540741 211.77837036zM865.8944 300.50228147999997c-74.03140741 74.15277037-164.32545185 105.70714075-233.13825185 118.9357037 89.68722963 36.28752592 152.91733333 122.69795555 153.16005926 223.91466667-0.24272592 133.62062222-110.4402963 241.87638518-246.60954074 241.99774815-136.04788148-0.12136297-246.36681482-108.49848889-246.48817778-241.99774815 0.12136297-103.03715555 65.77872592-191.0253037 158.13594074-225.85647407-104.8576-20.87442963-189.20485925-66.99235555-251.3426963-137.98968889-130.58654815-149.15508148-114.93072592-351.95259259-114.20254815-360.56936297l55.82696297 4.49042963c-0.12136297 1.94180741-14.19946667 189.20485925 101.2167111 320.5195852 68.08462222 77.55093333 168.33042963 121.2416 297.82471112 129.85837036 31.31164445-0.12136297 180.34536297-6.31087408 285.80977778-111.77528889 77.55093333-77.6722963 115.29481482-192.11757037 112.3821037-340.18038519l55.94832593-1.09226666c3.15543703 163.35454815-40.04977778 291.14974815-128.52337778 379.74471111z m-513.36533333 342.97173334c0.12136297 101.21671111 83.61908148 183.25807408 186.65623703 183.37943703 103.03715555-0.12136297 186.65623703-82.16272592 186.7776-183.37943703-0.12136297-101.21671111-83.61908148-183.25807408-186.7776-183.37943704-103.03715555 0.12136297-186.53487408 82.16272592-186.65623703 183.37943704z"  horiz-adv-x="1024" />

    
    <glyph glyph-name="wangluo_hover" unicode="&#59026;" d="M180.31502222 247.70939259V401.59762963h307.77647408v-153.76687408h43.93339259V401.59762963h307.77647408v-153.76687408h43.93339258l0.12136297 197.82162963h-351.9525926v102.43034074h-43.81202962v-102.5517037H136.50299259l-0.12136296-197.82162963h43.93339259z m161.17001481 300.61605926h337.02494815V885.22903703H341.48503703v-336.90358518z m300.73742222-366.51614815H378.25801482V-82.03377778000004h263.84308148V181.8093037z m351.58850372 0H729.96788148V-82.03377778000004H993.81096297V181.8093037z m-703.78382222 0H26.54814815V-82.03377778000004h263.4789926V181.8093037z"  horiz-adv-x="1024" />

    
    <glyph glyph-name="wangluo_link" unicode="&#59025;" d="M180.31502222 247.70939259V401.59762963h307.77647408v-153.76687408h43.93339259V401.59762963h307.77647408v-153.76687408h43.93339258l0.12136297 197.82162963h-351.9525926v102.43034074h-43.81202962v-102.5517037H136.50299259l-0.12136296-197.82162963h43.93339259z m161.17001481 300.61605926h337.02494815V885.22903703H341.48503703v-336.90358518z m46.48201482 292.9701926H632.14933333v-244.30364445H387.96705185V841.29564445z m254.2554074-659.48634075H378.25801482V-82.03377778000004h263.84308148V181.8093037z m-44.1761185-219.90968888H421.94868148V137.75454815h176.09765927v-175.85493333zM993.81096297 181.8093037H729.96788148V-82.03377778000004H993.81096297V181.8093037z m-44.05475556-219.90968888H773.65854815l0.12136296 131.92154073c0 24.15122963-0.12136297 43.93339259-0.12136296 43.9333926h176.09765926v-175.85493333zM290.02714075 181.8093037H26.54814815V-82.03377778000004h263.4789926V181.8093037z m-43.69066667-175.85493333v-43.93339259h-175.9762963V137.75454815h176.09765925v-131.80017778z"  horiz-adv-x="1024" />

    
    <glyph glyph-name="zonglan_hover" unicode="&#59023;" d="M335.29552592 828.33635556c-6.91768889-3.39816297-10.31585185-3.39816297-17.23354074-6.79632592-175.12675555-75.48776297-291.99928889-246.97362963-291.99928888-442.48936297 0-264.08580741 216.39016297-480.23324445 480.96142222-480.23324445 195.75845925 0 371.00657778 120.02797037 446.49434073 298.43152593 0 3.39816297 3.39816297 6.79632592 3.39816297 6.79632593 6.79632592 17.11217778-3.39816297 37.74388148-20.6317037 44.66157037-17.23354075 6.79632592-37.74388148-3.39816297-44.66157037-20.6317037 0-3.39816297-3.39816297-3.39816297-3.39816297-6.9176889-61.77374815-154.37368889-212.992-253.76995555-381.32242963-253.76995555-226.70601482 0-412.14862222 185.19988148-412.14862222 411.66317037 0 164.68954075 99.63899259 312.14554075 247.33771852 377.31745185 3.39816297 3.39816297 6.79632592 3.39816297 13.71401482 6.79632593 17.23354075 6.91768889 27.42802963 27.42802963 20.6317037 44.66157037-3.39816297 20.51034075-23.9085037 27.30666667-41.14204445 20.51034074zM510.42228148 862.68207408c264.57125925 0 480.96142222-216.14743703 480.96142222-480.23324444 0-20.6317037-13.83537778-34.34571852-34.34571852-34.34571852h-446.6157037c-20.6317037 0-34.34571852 13.71401482-34.34571851 34.34571852V828.33635556c0 20.51034075 13.71401482 34.22435555 34.34571851 34.34571852z"  horiz-adv-x="1024" />

    
    <glyph glyph-name="zonglan_link" unicode="&#59024;" d="M335.29552592 828.33635556c-6.91768889-3.39816297-10.31585185-3.39816297-17.23354074-6.79632592-175.12675555-75.48776297-291.99928889-246.97362963-291.99928888-442.48936297 0-264.08580741 216.39016297-480.23324445 480.96142222-480.23324445 195.75845925 0 371.00657778 120.02797037 446.49434073 298.43152593 0 3.39816297 3.39816297 6.79632592 3.39816297 6.79632593 6.79632592 17.11217778-3.39816297 37.74388148-20.6317037 44.66157037-17.23354075 6.79632592-37.74388148-3.39816297-44.66157037-20.6317037 0-3.39816297-3.39816297-3.39816297-3.39816297-6.9176889-61.77374815-154.37368889-212.992-253.76995555-381.32242963-253.76995555-226.70601482 0-412.14862222 185.19988148-412.14862222 411.66317037 0 164.68954075 99.63899259 312.14554075 247.33771852 377.31745185 3.39816297 3.39816297 6.79632592 3.39816297 13.71401482 6.79632593 17.23354075 6.91768889 27.42802963 27.42802963 20.6317037 44.66157037-3.39816297 20.51034075-23.9085037 27.30666667-41.14204445 20.51034074zM544.768 416.67318519h377.92426667c-17.23354075 199.03525925-175.12675555 360.20527408-377.92426667 377.31745185v-377.31745185zM510.42228148 862.68207408c264.57125925 0 480.96142222-216.14743703 480.96142222-480.23324444 0-20.6317037-13.83537778-34.34571852-34.34571852-34.34571852h-446.6157037c-20.6317037 0-34.34571852 13.71401482-34.34571851 34.34571852V828.33635556c0 20.51034075 13.71401482 34.22435555 34.34571851 34.34571852z"  horiz-adv-x="1024" />

    
    <glyph glyph-name="cancel" unicode="&#58890;" d="M512 784c54 0 106.4-10.6 155.7-31.4 47.6-20.1 90.4-49 127.2-85.7 36.7-36.7 65.6-79.5 85.7-127.2C901.4 490.4 912 438 912 384s-10.6-106.4-31.4-155.7c-20.1-47.6-49-90.4-85.7-127.2-36.7-36.7-79.5-65.6-127.2-85.7C618.4-5.399999999999977 566-16 512-16s-106.4 10.6-155.7 31.4c-47.6 20.1-90.4 49-127.2 85.7-36.7 36.7-65.6 79.5-85.7 127.2C122.6 277.6 112 330 112 384s10.6 106.4 31.4 155.7c20.1 47.6 49 90.4 85.7 127.2 36.7 36.7 79.5 65.6 127.2 85.7C405.6 773.4 458 784 512 784m0 40C269 824 72 627 72 384s197-440 440-440 440 197 440 440S755 824 512 824z m176.8-234.9L512 412.3 335.2 589.1l-28.3-28.3L483.7 384 306.9 207.20000000000005l28.3-28.3L512 355.70000000000005l176.8-176.8 28.3 28.3L540.3 384l176.8 176.8-28.3 28.3z"  horiz-adv-x="1024" />

    
    <glyph glyph-name="save" unicode="&#58888;" d="M949.333 853.333H96c-34.133 0-74.667-38.4-74.667-74.666V-32c0-34.133 40.534-53.333 74.667-53.333h853.333c36.267 0 53.334 19.2 53.334 53.333V778.667c0 36.266-17.067 74.666-53.334 74.666zM256 810.667h512v-328.534c0-12.8 2.133-10.666-10.667-10.666H288c-10.667-2.134-32-2.134-32 8.533V810.667zM960-32c0-12.8 2.133-10.667-10.667-10.667H96c-10.667 0-32 0-32 10.667V778.667c0 12.8 21.333 32 32 32h117.333V480c0-36.267 40.534-53.333 74.667-53.333h469.333c36.267 0 53.334 19.2 53.334 53.333V810.667h138.666c12.8 0 10.667-19.2 10.667-32V-32zM661.333 544c12.8 0 21.334 8.533 21.334 21.333v128c0 12.8-8.534 21.334-21.334 21.334S640 706.133 640 693.333v-128c0-10.666 8.533-21.333 21.333-21.333z"  horiz-adv-x="1024" />

    
    <glyph glyph-name="jisuan_link" unicode="&#59019;" d="M890.16699259 297.58957037000005h103.8866963v-69.05552592h-103.76533334v-207.16657778l-207.16657777 0.12136296v-103.8866963h-68.93416296v103.8866963H407.26376297v-103.8866963h-68.93416297v103.8866963H131.28438518V228.41268147999995h-103.76533333v69.05552593h103.76533333V504.51342222h-103.76533333v69.05552593h103.76533333v69.54097777c0 75.85185185 0.36408889 137.26151111 0.3640889 137.26151111l206.68112592 0.12136297V884.25813333h69.05552592v-103.64397036h206.92385186V884.25813333h69.05552592v-103.64397036h206.92385185v-207.04521482h104.00805927v-69.05552593h-103.76533334c-0.12136297 0-0.36408889-206.92385185-0.36408889-206.92385185zM199.97582222 711.55863703l0.12136296-621.13564444h620.89291852v621.37837038l-621.01428148-0.24272594z m138.11105186-137.98968888h344.79217777v-345.0349037H338.08687408V573.56894815z m68.93416295-275.97937778h207.04521482V504.63478518H407.1424l-0.12136297-207.04521481z"  horiz-adv-x="1024" />

    
    <glyph glyph-name="jisuan_hover" unicode="&#59020;" d="M614.06625185 504.63478518H407.1424v-207.04521481h-0.12136297 207.04521482zM994.17505185 504.51342222v69.05552593h-104.00805926V780.61416297H683.3645037V884.25813333h-69.05552592v-103.64397036H407.50648889V884.25813333H338.45096297v-103.64397036l-206.68112594-0.12136297s-0.36408889-61.40965925-0.36408888-137.26151111v-69.54097778h-103.76533333v-69.05552593h103.76533333v-206.92385185h-103.76533333V228.65540740999995h103.76533333v-207.04521482H338.45096297v-103.88669629h68.93416295v103.88669629h206.92385186v-103.88669629H683.12177778v103.88669629l207.04521481-0.12136296V228.41268147999995h103.76533333v69.05552593h-103.88669629l0.24272592 206.92385184h103.8866963zM687.61220741 228.53404445h-349.52533333V579.3943703699999h349.52533333v-350.86032592z"  horiz-adv-x="1024" />

    
    <glyph glyph-name="pandect" unicode="&#58993;" d="M349.94087 857.266087c-7.301565-3.561739-10.907826-3.561739-18.209392-7.212522C146.075826 770.003478 22.26087 588.2657389999999 22.26087 381.01704299999994 22.26087 101.064348 251.63687-128 531.990261-128c207.515826 0 393.216 127.24313 473.310609 316.326957 0 3.606261 3.650783 7.257043 3.650782 7.257043 7.257043 18.16487-3.650783 39.980522-21.860174 47.282087-18.209391 7.257043-40.069565-3.650783-47.326608-21.815652 0-3.650783-3.650783-3.650783-3.650783-7.301565-65.536-163.617391-225.725217-269.04487-404.123826-269.04487-240.283826 0-436.891826 196.34087-436.891826 436.313043 0 174.525217 105.561043 330.841043 262.144 399.938783 3.606261 3.650783 7.257043 3.650783 14.558608 7.257044 18.209391 7.301565 29.117217 29.117217 21.815653 47.282087C390.010435 857.310609 368.194783 864.567652 349.94087 857.310609z m222.074434-436.268522h400.517566c-18.209391 210.899478-185.655652 381.773913-400.517566 399.938783v-399.938783zM535.641043 893.68487c280.30887 0 509.729391-229.064348 509.729392-509.017044 0-21.815652-14.60313-36.374261-36.418783-36.374261H535.596522c-21.815652 0-36.418783 14.558609-36.418783 36.374261V857.266087c0 21.815652 14.558609 36.374261 36.418783 36.374261z"  horiz-adv-x="1068" />

    
    <glyph glyph-name="storage1" unicode="&#58994;" d="M1048.380952 761.61219C1045.74781 836.022857 817.493333 896 536.380952 896S27.014095 835.974095 24.380952 761.61219v-753.956571C24.380952-67.24266699999998 253.561905-128 536.380952-128s512 60.757333 512 135.655619V761.61219z m-67.535238-464.554666c-5.461333-3.900952-13.799619-8.777143-26.038857-14.384762-25.35619-11.556571-60.123429-22.528-100.498286-31.646476-88.112762-19.797333-200.996571-30.671238-317.927619-30.671238-116.931048 0-229.814857 10.873905-317.927619 30.72-40.374857 9.069714-75.093333 19.894857-100.449523 31.597714a166.229333 166.229333 0 0 0-26.08762 14.384762l0.341334 0.243809H83.870476V442.416762c85.967238-42.959238 256.341333-72.118857 452.461714-72.118857s366.494476 29.257143 452.510477 72.118857v-145.017905h-8.387048l0.341333-0.341333z m0 208.798476c-5.461333-3.900952-13.799619-8.728381-26.038857-14.384762-25.35619-11.556571-60.123429-22.528-100.498286-31.597714-88.112762-19.846095-200.996571-30.72-317.927619-30.72-116.931048 0-229.814857 10.873905-317.927619 30.72-40.374857 9.069714-75.093333 19.943619-100.449523 31.597714a166.229333 166.229333 0 0 0-26.08762 14.384762c0.097524 0.146286 0.195048 0.146286 0.341334 0.24381H83.870476v190.659047c85.967238-42.910476 256.341333-72.118857 452.461714-72.118857s366.494476 29.257143 452.510477 72.118857v-190.659047h-8.387048c0.146286 0 0.24381-0.097524 0.341333-0.24381zM118.101333 774.729143c25.35619 11.556571 60.123429 22.528 100.352 31.597714 88.112762 19.846095 200.996571 30.72 317.927619 30.72 116.931048 0 229.814857-10.873905 317.927619-30.72 40.374857-9.069714 75.093333-19.943619 100.449524-31.597714 12.288-5.656381 20.626286-10.48381 26.087619-14.384762-5.461333-3.900952-13.799619-8.777143-26.038857-14.384762-25.502476-11.605333-60.269714-22.576762-100.498286-31.646476-88.112762-19.797333-200.996571-30.671238-317.927619-30.671238-116.931048 0-229.814857 10.873905-317.927619 30.72-40.374857 9.020952-75.093333 19.894857-100.449523 31.597714a166.229333 166.229333 0 0 0-26.08762 14.384762c5.558857 3.900952 13.897143 8.728381 26.185143 14.384762z m862.744381-767.024762c-5.461333-3.900952-13.799619-8.777143-26.038857-14.433524-25.502476-11.556571-60.269714-22.528-100.498286-31.597714-88.112762-19.846095-200.996571-30.72-317.927619-30.72-116.931048 0-229.814857 10.873905-317.927619 30.72-40.374857 9.069714-75.093333 19.943619-100.449523 31.597714a166.229333 166.229333 0 0 0-26.08762 14.384762c0.097524 0.146286 0.195048 0.146286 0.341334 0.24381H83.870476v225.670095c85.967238-42.910476 256.341333-72.070095 452.461714-72.070095s366.494476 29.257143 452.510477 72.070095v-225.670095h-8.387048c0.146286-0.097524 0.24381-0.097524 0.341333-0.24381z"  horiz-adv-x="1072" />

    
    <glyph glyph-name="apply" unicode="&#58995;" d="M446.107826 876.989217h-445.217391V431.638261l445.217391 0.178087v445.217391zM400.250435 477.94087H46.747826V831.131826h353.502609v-353.235478z m45.857391-138.462609h-445.217391v-445.128348h445.217391V339.478261z m-45.857391-399.048348H46.747826V293.62086999999997h353.502609v-353.235479z m580.118261 402.342957h-445.217392v-445.17287h445.217392v445.217391z m0 534.260869h-445.217392v-445.172869h445.217392v445.217391zM933.175652-54.984347999999954h-353.502609v353.235478h353.502609v-353.235478z m0 534.26087h-353.502609V832.467478h353.502609V479.276522z"  horiz-adv-x="1024" />

    
    <glyph glyph-name="approval" unicode="&#58997;" d="M782.336 705.621333H211.2a25.045333 25.045333 0 0 1 0-50.090666h571.136a25.045333 25.045333 0 1 1 0 50.090666z m25.045333-204.544a25.045333 25.045333 0 0 1-25.045333 25.045334H211.2a25.045333 25.045333 0 1 1 0-50.090667h571.136a25.045333 25.045333 0 0 1 25.045333 25.045333zM211.157333 346.66666699999996a25.045333 25.045333 0 1 1 0-50.090667h366.506667a25.045333 25.045333 0 1 1 0 50.090667H211.2z m287.146667-179.456H211.2a25.045333 25.045333 0 0 1 0-50.090667h287.146667a25.045333 25.045333 0 0 1 0 50.090667z m353.450667-120.576l-82.602667 115.541333a87.168 87.168 0 0 1 58.538667 82.048 87.466667 87.466667 0 0 1-87.381334 87.338667 87.466667 87.466667 0 0 1-87.381333-87.338667c0-37.973333 24.576-70.101333 58.581333-82.048l-82.645333-115.541333h-42.325333a38.613333 38.613333 0 0 1-38.570667-38.570667v-62.08c0-21.290667 17.28-38.570667 38.570667-38.570667h307.541333a38.613333 38.613333 0 0 1 38.570667 38.570667v62.08a38.570667 38.570667 0 0 1-38.570667 38.570667h-42.325333z m-165.76 197.589333a54.357333 54.357333 0 0 0 108.629333 0c0-29.738667-24.064-53.930667-53.76-54.186667h-1.066667a54.314667 54.314667 0 0 0-53.76 54.186667z m49.237333-105.728l9.728 0.597333 66.133333-92.458666h-141.568l65.706667 91.861333z m164.394667-192.554667a5.546667 5.546667 0 0 0-5.546667-5.546666h-307.498667a5.546667 5.546667 0 0 0-5.546666 5.546666v62.122667c0 2.986667 2.56 5.504 5.546666 5.504h307.541334c2.986667 0 5.546667-2.517333 5.546666-5.546667v-62.08h-0.042666zM93.184 810.837333c0 3.84 3.84 7.125333 8.362667 7.125334h797.738666c4.522667 0 8.32-3.242667 8.32-7.125334v-401.066666c18.773333-8.106667 35.669333-18.773333 50.133334-31.744V810.837333c0 27.434667-26.24 49.749333-58.453334 49.749334H101.546667C69.290667 860.586667 43.093333 838.272 43.093333 810.837333v-835.114666c0-27.392 26.197333-49.749333 58.453334-49.749334h382.506666v40.533334c0 0.725333-382.506667 2.133333-382.506666 2.133333-4.522667 0-8.362667 3.242667-8.362667 7.082667V810.837333z"  horiz-adv-x="1024" />

    
    <glyph glyph-name="log" unicode="&#58998;" d="M1022.174609 895.554783H46.747826c-12.911304 0-23.596522-10.373565-23.596522-23.151305v-955.169391c0-12.822261 10.50713-23.151304 23.596522-23.151304h970.573913c15.449043 0 28.40487 10.907826 28.40487 25.555478V872.403478a23.596522 23.596522 0 0 1-23.596522 23.151305z m-54.182957-923.291826H97.458087V814.792348h870.533565v-842.529391zM318.73113 692.535652H215.930435v-100.441043h102.845217V692.535652z m0-252.304695H215.930435v-100.396522h102.845217v100.396522z m0-253.017044H216.82087v-99.550609h102.088347l-0.133565 99.550609z m101.821218 470.149565h437.470609v-67.940174H420.552348V657.363478z m0-252.260174h437.470609v-67.984695H420.552348v67.984695z m0-247.763478h437.470609v-67.984696H420.552348v67.984696z"  horiz-adv-x="1068" />

    
    <glyph glyph-name="account" unicode="&#59000;" d="M548.507826 717.200696a198.344348 198.344348 0 0 1-198.210783-198.210783c0-68.34087 34.192696-123.013565 82.009044-157.161739-102.533565-47.86087-164.018087-143.538087-164.018087-259.739826 0-10.24 61.484522-6.90087 61.484522 0 0 116.201739 95.721739 211.923478 218.735304 211.923478 27.38087 0 54.761739-6.856348 82.053565-13.712696 13.623652-6.811826 34.148174 0 41.004522 20.48 6.811826 13.668174 0 27.38087-6.856348 41.049044 47.905391 34.148174 82.009043 88.82087 82.009044 157.161739a198.344348 198.344348 0 0 1-198.210783 198.210783z m0-328.080696c-75.108174 0-129.825391 61.529043-129.825391 129.869913 0 75.152696 61.529043 129.825391 129.869913 129.825391 75.152696 0 129.869913-61.484522 129.869913-129.825391 0-75.197217-54.761739-129.869913-129.869913-129.869913zM1013.314783 228.17391299999997H645.565217v-52.268522h367.749566V228.17391299999997zM1013.314783 139.13043500000003H645.565217v-52.268522h367.749566V139.13043500000003zM1013.314783 50.086956999999984H645.565217v-52.268522h367.749566V50.086956999999984zM83.70087-27.82608700000003V833.402435h868.173913L951.785739 317.217391h61.529044V894.886957H22.26087v-990.96487h594.810434l-0.178087 68.296348H83.70087z"  horiz-adv-x="1024" />

    
    <glyph glyph-name="qiyebangonglou" unicode="&#58986;" d="M184.685714 675.657143l146.285714 0 0-109.714286-146.285714 0 0 109.714286ZM404.114286 675.657143l146.285714 0 0-109.714286-146.285714 0 0 109.714286ZM184.685714 492.8l146.285714 0 0-109.714286-146.285714 0 0 109.714286ZM404.114286 492.8l146.285714 0 0-109.714286-146.285714 0 0 109.714286ZM769.828571 492.8l73.142857 0 0-109.714286-73.142857 0 0 109.714286ZM769.828571 309.942857l73.142857 0 0-109.714286-73.142857 0 0 109.714286ZM184.685714 309.942857l146.285714 0 0-109.714286-146.285714 0 0 109.714286ZM404.114286 309.942857l146.285714 0 0-109.714286-146.285714 0 0 109.714286ZM989.257143-19.2l0 658.285714-292.571429 0 0 219.428571-658.285714 0 0-877.714286-36.571429 0 0-73.142857 1024 0 0 73.142857L989.257143-19.2zM111.542857-19.2l0 804.571429 512 0 0-804.571429L111.542857-19.2zM696.685714-19.2l0 585.142857 219.428571 0 0-585.142857L696.685714-19.2z"  horiz-adv-x="1026" />

    
    <glyph glyph-name="error1" unicode="&#58956;" d="M163.281 125.17600000000004A429.708 429.708 0 0 0 79.5 379.71799999999996c0 237.226 193.008 430.235 430.266 430.235 97.994 0 192.077-33.358 268.35-94.55L480.97 430.144 163.28 125.17499999999995z m346.485-175.693a429.552 429.552 0 0 0-306.114 128.403L823.73 673.202a424.867 424.867 0 0 0 116.24-293.484c0-237.227-192.978-430.235-430.204-430.235z m359.486 767.38l-23.956 22.403-21.472 20.046-0.993-0.931C734.518 831.58 624.64 872.014 509.766 872.014c-271.453 0-492.327-220.843-492.327-492.296 0-107.613 35.933-212 101.066-297.58l-0.931-0.87 19.146-22.28 21.41-24.824 1.242 1.21c92.408-94.083 218.08-147.952 350.394-147.952 271.453 0 492.265 220.843 492.265 492.296 0 126.572-47.632 244.457-133.958 336.058l1.179 1.117z"  horiz-adv-x="1024" />

    
    <glyph glyph-name="information" unicode="&#58940;" d="M511.9878637 893.51812741C231.03745897 893.51812741 2.48187259 664.95040475 2.48187259 384s228.55558637-509.51812741 509.50599111-509.51812741S1021.51812741 103.04959525000004 1021.51812741 384 792.93705482 893.51812741 511.9878637 893.51812741z m0-969.32598519c-253.52237511 0-459.79572148 206.27334637-459.79572148 459.80785778s206.27334637 459.80785778 459.79572148 459.80785778c253.5466477 0 459.81999408-206.27334637 459.81999408-459.80785778S765.53451141-75.80785777999995 511.9878637-75.80785777999995z m146.58218667 182.06386253v-67.45596208a5.11302163 5.11302163 0 0 0-5.09481719-5.10938075H405.8438163a5.09724445 5.09724445 0 0 0-5.09481719 5.10938075v67.45596208a5.10452622 5.10452622 0 0 0 5.09481719 5.1081671h71.33472237V470.89345422h-72.06775467a5.07054459 5.07054459 0 0 0-5.07054459 5.08268089v68.98513541a5.06569008 5.06569008 0 0 0 5.07054459 5.09603081h168.96515792a5.08632178 5.08632178 0 0 0 5.09481719-5.09603081v-433.59709867h74.30447407c2.78406637 0 5.09603082-2.28647822 5.09603082-5.1081671zM433.52064 676.02356148c0 42.89938015 34.76077985 77.6722963 77.6722963 77.6722963 42.88845748 0 77.6722963-34.77291615 77.67229629-77.6722963s-34.78383882-77.6722963-77.67229629-77.6722963c-42.92486637 0-77.6722963 34.77170252-77.6722963 77.6722963z"  horiz-adv-x="1024" />

    
    <glyph glyph-name="warining" unicode="&#58947;" d="M512 689.856l396.992-687.552H115.008L512 689.856m0 135.232L0-61.696000000000026h1024L512 825.088z m-32-310.784h64v-320h-64v320z m64-384v-64h-64v64m0 0"  horiz-adv-x="1024" />

    
    <glyph glyph-name="time" unicode="&#58928;" d="M967.92689778 576.61781333c-24.92188445 58.92664889-60.59804445 111.84355555-106.03178667 157.27616-45.43374222 45.43374222-98.34951111 81.10990222-157.27729778 106.03292445C643.59424 865.73852445 578.78755555 878.82524445 512 878.82524445c-66.78755555 0-131.59537778-13.08672-192.61781333-38.89834667-58.92551111-24.92302222-111.84241778-60.59804445-157.27616-106.03292445-45.43374222-45.43374222-81.10990222-98.34951111-106.03292445-157.27616C30.26261333 515.59424 17.17475555 450.78755555 17.17475555 384c0-66.78755555 13.08672-131.59537778 38.89834667-192.61781333 24.92302222-58.92664889 60.59804445-111.84355555 106.03292445-157.27729778s98.34951111-81.10990222 157.27616-106.03178667C380.40576-97.73852445 445.21244445-110.82524445000001 512-110.82524445000001c66.78755555 0 131.59310222 13.08672 192.61781333 38.89834667 58.92664889 24.92188445 111.84355555 60.59804445 157.27729778 106.03178667s81.10990222 98.34951111 106.03178667 157.27729778C993.73852445 252.40576 1006.82524445 317.21244445 1006.82524445 384c0 66.78755555-13.08672 131.59537778-38.89834667 192.61781333zM820.73031111 75.26968889C738.26531555-7.195306670000036 628.62222222-52.610844449999945 512-52.610844449999945s-226.26531555 45.41553778-308.73031111 127.88053334S75.38915555 267.37777778 75.38915555 384c0 116.62222222 45.41553778 226.26531555 127.88053334 308.73031111S395.37777778 820.6108444500001 512 820.6108444500001s226.26531555-45.41553778 308.73031111-127.88053334S948.61084445 500.62222222 948.61084445 384c0-116.62222222-45.41553778-226.26531555-127.88053334-308.73031111zM541.10776889 710.00291555c0 16.07566222-13.03210667 29.10663111-29.10776889 29.10663112s-29.10776889-13.03096889-29.10776889-29.10663112V397.97191111c0-2.40981333 0.29809778-4.74680889 0.84992-6.98595556a29.14759111 29.14759111 0 0 1-0.84992-6.98595555c0-16.07566222 13.03210667-29.10776889 29.10776889-29.10776889h326.00291555c16.07566222 0 29.10663111 13.03096889 29.10663112 29.10776889s-13.03096889 29.10776889-29.10663112 29.10776889H541.10776889V710.00291555z"  horiz-adv-x="1024" />

    
    <glyph glyph-name="fresh" unicode="&#58932;" d="M992 256H672c-17.664 0-32-14.4-32-32s14.336-32 32-32h244.32C844.352 40.639999999999986 690.624-64 512-64c-225.632 0-411.776 167.04-442.912 384H4.416C36 67.51999999999998 250.944-128 512-128c192.896 0 360.704 106.88 448 264.32V-96c0-17.6 14.336-32 32-32s32 14.4 32 32V224c0 33.92-32 32-32 32zM32 512h320c17.664 0 32 14.4 32 32s-14.336 32-32 32H107.488C179.392 727.36 333.344 832 512 832c225.632 0 411.776-167.04 442.912-384h64.672C988 700.48 773.056 896 512 896 319.104 896 151.296 789.12 64 631.6800000000001V864C64 881.6 49.664 896 32 896S0 881.6 0 864v-320c0-31.04 32-32 32-32z"  horiz-adv-x="1024" />

    
    <glyph glyph-name="yingyong" unicode="&#58927;" d="M375.33809778 873.27630222H92.01095111c-38.54222222 0-69.87548445-31.3344-69.87548444-69.87548444v-283.32714667c0-38.54222222 31.33326222-69.87548445 69.87548444-69.87548444h283.32714667c38.54222222 0 69.87548445 31.3344 69.87548444 69.87548444V803.40081778c0.14791111 38.54222222-31.18648889 69.87548445-69.87548444 69.87548444zM92.01095111 519.92689778V803.40081778h283.32714667v-283.32714667H92.01095111zM931.40081778 873.27630222H647.92689778c-38.54222222 0-69.87548445-31.3344-69.87548445-69.87548444v-283.32714667c0-38.54222222 31.33326222-69.87548445 69.87548445-69.87548444h283.47392c38.54222222 0 69.87548445 31.3344 69.87548444 69.87548444V803.40081778c0 38.54222222-31.3344 69.87548445-69.87548444 69.87548444zM647.92689778 519.92689778V803.40081778h283.47392v-283.32714667H647.92689778zM931.40081778 317.36035555H647.92689778c-38.54222222 0-69.87548445-31.3344-69.87548445-69.87548444v-283.32714666c0-38.54222222 31.33326222-69.87548445 69.87548445-69.87548445h283.47392c38.54222222 0 69.87548445 31.3344 69.87548444 69.87548445V247.48487110999997c0 38.54222222-31.3344 69.87548445-69.87548444 69.87548444zM647.92689778-35.98791111000003V247.48487110999997h283.47392v-283.32714666H647.92689778zM375.33809778 317.36035555H92.01095111c-38.54222222 0-69.87548445-31.3344-69.87548444-69.87548444v-283.32714666c0-38.54222222 31.33326222-69.87548445 69.87548444-69.87548445h283.32714667c38.54222222 0 69.87548445 31.3344 69.87548444 69.87548445V247.48487110999997c0.14791111 38.54222222-31.18648889 69.87548445-69.87548444 69.87548444zM92.01095111-35.98791111000003V247.48487110999997h283.32714667v-283.32714666H92.01095111z m404.39580444 279.79662222"  horiz-adv-x="1024" />

    
    <glyph glyph-name="node" unicode="&#58910;" d="M90.21612942 263.49143230000004h843.56774116V504.5085677H90.21612942v-241.0171354z m0-60.2555784v-210.89322981a30.12778919 30.12778919 0 0 1 30.12778919-30.12649467h783.31216278a30.12778919 30.12778919 0 0 1 30.12778919 30.12778919V203.23585390000005H90.21612942z m0 361.5282922h843.56774116v210.89322981a30.12778919 30.12778919 0 0 1-30.12778919 30.12649467h-783.31216278a30.12778919 30.12778919 0 0 1-30.12778919-30.12778919v-210.89193529z m843.56774116 301.27530287a60.25428385 60.25428385 0 0 0 60.25557839-60.25557839v-843.56774116a60.25428385 60.25428385 0 0 0-60.25557839-60.25557839H90.21612942a60.25428385 60.25428385 0 0 0-60.25557839 60.25557839V805.78387058a60.25428385 60.25428385 0 0 0 60.25557839 60.25557839h843.56774116z m-723.05787892-210.89322982a30.12778919 30.12778919 0 1 0 0 60.25557838 30.12778919 30.12778919 0 0 0 0-60.25428384z m90.38207305 0a30.12778919 30.12778919 0 1 0 0 60.25557838 30.12778919 30.12778919 0 0 0 0-60.25428384z m90.38207305 0a30.12778919 30.12778919 0 1 0 0 60.25557838 30.12778919 30.12778919 0 0 0 0-60.25428384zM572.25428385 715.4017975300001h241.01972449a30.12778919 30.12778919 0 0 0 0-60.25428384H572.25428385a30.12778919 30.12778919 0 0 0 0 60.25428384zM210.72599166 353.87221080999996a30.12778919 30.12778919 0 1 0 0 60.25557838 30.12778919 30.12778919 0 0 0 0-60.25557838z m90.38207305 0a30.12778919 30.12778919 0 1 0 0 60.25557838 30.12778919 30.12778919 0 0 0 0-60.25557838z m90.38207305 0a30.12778919 30.12778919 0 1 0 0 60.25557838 30.12778919 30.12778919 0 0 0 0-60.25557838z m180.76414609 60.25557838h241.01972449a30.12778919 30.12778919 0 0 0 0-60.25557838H572.25428385a30.12778919 30.12778919 0 0 0 0 60.25557838zM210.72599166 52.59820247000005a30.12778919 30.12778919 0 1 0 0 60.25428384 30.12778919 30.12778919 0 0 0 0-60.25428384z m90.38207305 0a30.12778919 30.12778919 0 1 0 0 60.25428384 30.12778919 30.12778919 0 0 0 0-60.25428384z m90.38207305 0a30.12778919 30.12778919 0 1 0 0 60.25428384 30.12778919 30.12778919 0 0 0 0-60.25428384z m180.76414609 60.25428384h241.01972449a30.12778919 30.12778919 0 0 0 0-60.25428384H572.25428385a30.12778919 30.12778919 0 0 0 0 60.25428384z"  horiz-adv-x="1024" />

    
    <glyph glyph-name="virtual1" unicode="&#58912;" d="M206.1 151.29999999999995c0-0.7 0.1-1.3 0.1-1.8h739.1V608.8H206.1v-457.5zM985.7 690.1H165.9c-21.4 0-39.1-17.5-39.1-39.1v-543.6c0-21.4 17.5-39.1 39.1-39.1h321.3V-7H354.7c-11.6 0-20.9-9.4-20.9-20.9s9.4-20.9 20.9-20.9h442.1c11.6 0 20.9 9.4 20.9 20.9s-9.4 20.9-20.9 20.9H664.4v75.4h321.3c21.4 0 39.1 17.5 39.1 39.1V651.1c0 21.5-17.5 39-39.1 39zM622.5-7h-93.4v75.4h93.4V-7z m359.7 153.4c0-20.2-12.9-33.8-32.1-33.8H201.5c-20.2 0-32.3 14.5-32.3 38.7V613.9c0 5.8 0 16.4 8.1 24.3 7.8 7.6 18.4 7.6 24.1 7.6h747.2c6.3 0 16.7 0 24.8-8 7.7-7.7 8.8-18.2 8.8-28.5v-462.9zM0.7 675.5h44.9v-113.9H0.7z m45.1 85h26.1V805.3H43c-5.4 0-10.5-1.2-13.8-2.3H29l-0.5-0.2c-11.4-4.2-20.3-13.2-24.8-24.7l-0.2-0.5v-0.2c-0.8-2.4-2.3-7.8-2.3-13.8v-40.2h45l-0.4 37.1z m0.3-518.2H1.2v-22.4c0-5.4 1.2-10.5 2.3-13.8v-0.2l0.2-0.5c4.2-11.4 13.2-20.3 24.8-24.8l0.5-0.2h0.2c2.4-0.8 7.8-2.3 13.8-2.3h74V223l-70.8-0.3-0.1 19.6z m856.5 534.9v0.2l-0.2 0.5c-4.2 11.4-13.2 20.3-24.8 24.8l-0.5 0.2h-0.2c-2.4 0.8-7.8 2.3-13.8 2.3h-74v-44.9l70.8 0.3v-21.9h44.9v24.7c0.1 5.4-1.1 10.5-2.2 13.8zM116.4 805.5h101.2v-44.9H116.4z m473.3 0h113.9v-44.9H589.7zM0.7 513.7h44.9v-113.9H0.7z m427 291.8h113.9v-44.9H427.7z m-162.1 0h113.9v-44.9H265.6zM0.7 361.6h44.9v-92.3H0.7z"  horiz-adv-x="1024" />

    
    </font>
</defs>
</svg>
